<svg xmlns:xlink="http://www.w3.org/1999/xlink" version="1.1" xmlns="http://www.w3.org/2000/svg">

<symbol viewBox="0 0 24 24" id="checkmark">
	<g fill-rule="evenodd">
			<g>
					<path d="M0,14 L0,4.5 C-1.01453063e-16,3.67157288 0.671572875,3 1.5,3 L1.5,3 C2.32842712,3 3,3.67157288 3,4.5 L3,14 L22.5,14 C23.3284271,14 24,14.6715729 24,15.5 L24,15.5 C24,16.3284271 23.3284271,17 22.5,17 L2,17 C0.8954305,17 1.3527075e-16,16.1045695 0,15 L0,14 Z" id="Rectangle" transform="translate(12.000000, 10.000000) rotate(-56.000000) translate(-12.000000, -10.000000) "></path>
			</g>
	</g>
</symbol>

<symbol viewBox="0 0 48 49" id="calendar">
	<g>
	<path d="M13.55,39.687c0.881,0.578,2.653,1.251,4.75,1.251c4.694,0,6.833-2.98,6.833-5.752c0-1.92-1.026-3.548-2.674-4.422
		c1.308-0.926,2.031-2.272,2.031-3.855c0-2.352-1.708-4.723-5.521-4.723c-2.09,0-3.906,0.766-4.825,1.422
		c-0.272,0.194-0.381,0.548-0.263,0.862l0.617,1.646c0.081,0.215,0.258,0.38,0.477,0.446c0.22,0.067,0.458,0.027,0.646-0.105
		c0.623-0.446,1.761-0.969,2.912-0.969c1.414,0,2.191,0.634,2.191,1.781c0,1.533-1.786,2.089-2.989,2.089h-1.259
		c-0.408,0-0.739,0.331-0.739,0.74v1.696c0,0.407,0.331,0.738,0.739,0.738h1.259c0.594,0,3.553,0.126,3.582,2.616
		c0.011,0.637-0.225,1.25-0.645,1.678c-0.529,0.538-1.334,0.811-2.396,0.811c-1.409,0-2.751-0.58-3.323-0.923
		c-0.189-0.114-0.422-0.137-0.628-0.063c-0.208,0.074-0.373,0.237-0.447,0.446l-0.617,1.722
		C13.144,39.141,13.264,39.498,13.55,39.687z"/>
	<path d="M27.818,27.064c0.057,0.221,0.21,0.403,0.419,0.494c0.209,0.093,0.446,0.082,0.648-0.026l1.866-1.007v13.391
		c0,0.407,0.331,0.738,0.739,0.738h2.186c0.408,0,0.739-0.331,0.739-0.738V23.207c0-0.408-0.331-0.739-0.739-0.739h-1.929
		c-0.121,0-0.241,0.029-0.349,0.087l-3.65,1.954c-0.3,0.161-0.451,0.504-0.367,0.833L27.818,27.064z"/>
	<path d="M40.678,4.015h-3.713v3.392c0,1.29-1.048,2.339-2.338,2.339c-1.289,0-2.338-1.049-2.338-2.339V4.015H17.865v3.392
		c0,1.29-1.049,2.339-2.338,2.339c-1.29,0-2.338-1.049-2.338-2.339V4.015H9.477c-2.505,0-4.542,2.037-4.542,4.541v36.64
		c0,2.504,2.037,4.541,4.542,4.541h31.201c2.504,0,4.542-2.037,4.542-4.541V8.556C45.22,6.052,43.182,4.015,40.678,4.015z
		 M42.263,45.195c0,0.873-0.71,1.585-1.585,1.585H9.477c-0.875,0-1.586-0.712-1.586-1.585V15.316h34.372V45.195z"/>
	<path d="M15.527,8.267c0.476,0,0.86-0.385,0.86-0.861V4.015V2.017c0-0.476-0.384-0.861-0.86-0.861s-0.861,0.385-0.861,0.861v1.998
		v3.392C14.667,7.882,15.052,8.267,15.527,8.267z"/>
	<path d="M34.627,8.267c0.476,0,0.861-0.385,0.861-0.861V2.017c0-0.476-0.386-0.861-0.861-0.861s-0.859,0.385-0.859,0.861v5.389
		C33.768,7.882,34.151,8.267,34.627,8.267z"/>
</g>
</symbol>

<symbol viewBox="0 0 64 64" id="add">
<g>
	<path d="M13.751,23.881c0,0.957,0.732,1.731,1.633,1.731c0.01,0,0.018-0.001,0.029-0.001c0.337,4.563,3.932,9.13,8.323,9.13
		c4.39,0,7.985-4.567,8.324-9.13c0.009,0,0.018,0.001,0.027,0.001c0.901,0,1.633-0.775,1.633-1.731c0-0.706-0.397-1.31-0.967-1.58
		c0.33-1.025,0.511-2.123,0.511-3.266c0-5.582-4.266-10.107-9.528-10.107c-5.264,0-9.528,4.525-9.528,10.107
		c0,1.144,0.182,2.241,0.511,3.266C14.149,22.571,13.751,23.176,13.751,23.881z"/>
	<path d="M30.849,37.585c-0.129-0.071-0.275-0.11-0.426-0.11h-0.464c-0.146,0-0.291,0.037-0.419,0.106
		c-1.542,0.826-3.657,1.302-5.803,1.302c-2.146,0-4.262-0.476-5.806-1.303c-0.129-0.068-0.273-0.105-0.419-0.105h-0.337
		c-0.069,0-0.137,0.008-0.203,0.023c-5.243,1.239-10.116,3.939-14.095,7.804c-0.172,0.168-0.27,0.396-0.27,0.637v3.173
		c0,0.49,0.397,0.889,0.887,0.889h40.486c0.489,0,0.888-0.398,0.888-0.889v-3.173c0-0.24-0.1-0.47-0.271-0.637
		C40.705,41.524,35.956,38.857,30.849,37.585z"/>
	<polygon points="41.277,6.594 41.277,0.556 38.273,0.556 38.273,6.594 32.073,6.594 32.073,9.597 38.273,9.597 38.273,15.822
		41.277,15.822 41.277,9.597 47.342,9.597 47.342,6.594 	"/>
</g>
</symbol>


<symbol viewBox="0 0 64 64" id="avatar">
	<circle cx="25.398" cy="19.783" r="11.401"/>
<path d="M49.022,48.311c0-7.524-6.103-13.626-13.627-13.626H15.092c-7.526,0-13.626,6.102-13.626,13.626
	c0,0.571,0.046,1.131,0.115,1.684h47.328C48.977,49.441,49.022,48.882,49.022,48.311z"/>
</symbol>

<symbol viewBox="0 0 54 54" id="bubble-empty">
	<path fill="none" stroke="#fff" stroke-width="3" stroke-miterlimit="10" d="M47.368,24.931l-0.007,0.003V8.057
	c0-2.613-2.118-4.731-4.73-4.731H7.467c-2.613,0-4.731,2.118-4.731,4.731v25.276c0,2.612,2.118,4.73,4.731,4.73h27.311l12.59,5.271
	V24.931z"/>
</symbol>

<symbol viewBox="0 0 44 52" id="bubble-full">
	<path d="M47.368,24.931l-0.007,0.003V8.057c0-2.613-2.118-4.731-4.73-4.731H7.467c-2.613,0-4.731,2.118-4.731,4.731v25.276
	c0,2.612,2.118,4.73,4.731,4.73h27.311l12.59,5.271V24.931z"/>
</symbol>
<symbol viewBox="0 0 30 22" id="cc">
	<g id="Page-1">
			<g fill-rule="nonzero">
					<path d="M30,18.975 C30,20.276 28.945,21.33 27.645,21.33 L2.426,21.33 C1.126,21.33 0.071,20.275 0.071,18.975 L0.071,2.98 C0.071,1.679 1.126,0.625 2.426,0.625 L27.644,0.625 C28.945,0.625 30,1.679 30,2.98 L30,18.975 Z" id="Shape" fill="#E7E9EB"></path>
					<rect id="Rectangle-path" fill="#484848" x="0.134" y="11.713" width="29.866" height="5.299"></rect>
			</g>
	</g>
</symbol>

<symbol viewBox="0 0 48 48" id="clock">
	<g>
		<path d="M24.99,2.99c-12.362,0-22.42,10.057-22.42,22.418c0,12.364,10.058,22.42,22.42,22.42c12.362,0,22.418-10.057,22.418-22.42
			C47.408,13.046,37.352,2.99,24.99,2.99z M24.99,44.371c-10.457,0-18.962-8.508-18.962-18.963c0-10.455,8.505-18.96,18.962-18.96
			c10.456,0,18.961,8.505,18.961,18.96C43.951,35.863,35.445,44.371,24.99,44.371z"/>
		<path d="M34.088,24.495h-8.776V12.003c0-0.756-0.614-1.37-1.371-1.37c-0.755,0-1.37,0.614-1.37,1.37v14.321
			c0,0.287,0.09,0.557,0.244,0.775c0.292,0.619,0.918,1.051,1.649,1.051h9.624c1.01,0,1.828-0.818,1.828-1.826
			C35.916,25.314,35.098,24.495,34.088,24.495z"/>
	</g>
</symbol>

<symbol viewBox="0 0 47 47" id="facebook">
	<g id="Page-1" stroke="none" stroke-width="1" fill="none" fill-rule="evenodd">
			<g id="facebook" fill-rule="nonzero" fill="#3A589B">
					<path d="M19.861,35.955 L25.059,35.955 L25.059,23.373 L28.528,23.373 L28.987,19.038 L25.059,19.038 L25.065,16.868 C25.065,15.737 25.173,15.131 26.794,15.131 L28.962,15.131 L28.962,10.795 L25.493,10.795 C21.326,10.795 19.861,12.899 19.861,16.436 L19.861,19.039 L17.264,19.039 L17.264,23.375 L19.861,23.375 L19.861,35.955 L19.861,35.955 Z M23.125,46.5 C10.354,46.5 0,36.146 0,23.375 C0,10.603 10.354,0.25 23.125,0.25 C35.896,0.25 46.25,10.603 46.25,23.375 C46.25,36.146 35.896,46.5 23.125,46.5 Z" id="Shape"></path>
			</g>
	</g>
</symbol>

<symbol viewBox="0 0 45 46" id="go">
	<g id="go" stroke="none" stroke-width="1" fill="none" fill-rule="evenodd">
    <g id="go">
      <polyline  stroke="#fff" stroke-width="4" points="21.5 0.5 44.167 23.167 22 45.334"></polyline>
      <rect fill="#fff" fill-rule="nonzero" x="0" y="21" width="44" height="4"></rect>
    </g>
  </g>
</symbol>

<symbol viewBox="0 0 47 48" id="google">
	<g id="Page-1" stroke="none" stroke-width="1" fill="none" fill-rule="evenodd">
			<g id="google" fill-rule="nonzero">
					<path d="M16.328,2.096 C10.582,4.063 5.685,8.363 2.958,13.804 C2.007,15.681 1.322,17.674 0.903,19.74 C-0.137,24.865 0.586,30.333 2.945,35 C4.48,38.045 6.687,40.759 9.351,42.878 C11.874,44.882 14.805,46.379 17.926,47.203 C21.858,48.257 26.045,48.231 30.002,47.331 C33.579,46.506 36.967,44.793 39.668,42.308 C42.522,39.682 44.564,36.232 45.644,32.515 C46.823,28.469 46.975,24.143 46.239,19.982 C38.843,19.982 31.436,19.982 24.041,19.982 C24.041,23.051 24.041,26.122 24.041,29.191 C28.328,29.191 32.616,29.191 36.904,29.191 C36.409,32.134 34.658,34.823 32.184,36.484 C30.623,37.538 28.835,38.21 26.983,38.54 C25.131,38.856 23.204,38.894 21.352,38.527 C19.462,38.146 17.673,37.36 16.1,36.256 C13.589,34.493 11.673,31.917 10.697,29.013 C9.695,26.057 9.682,22.772 10.697,19.829 C11.407,17.748 12.574,15.833 14.122,14.26 C16.025,12.307 18.498,10.911 21.174,10.341 C23.458,9.858 25.868,9.947 28.101,10.619 C30.003,11.189 31.754,12.243 33.188,13.613 C34.634,12.168 36.08,10.721 37.526,9.275 C38.287,8.502 39.087,7.753 39.821,6.954 C37.628,4.925 35.041,3.288 32.224,2.248 C27.148,0.371 21.44,0.333 16.328,2.096 Z" id="Shape" fill="#FFFFFF"></path>
					<path d="M16.328,2.096 C21.427,0.332 27.149,0.37 32.223,2.236 C35.039,3.276 37.614,4.9 39.82,6.943 C39.086,7.742 38.286,8.49 37.525,9.264 C36.079,10.709 34.633,12.156 33.187,13.602 C31.753,12.231 30.002,11.191 28.1,10.607 C25.868,9.936 23.457,9.834 21.173,10.329 C18.51,10.9 16.036,12.295 14.121,14.248 C12.573,15.808 11.407,17.736 10.696,19.817 C8.121,17.813 5.546,15.821 2.958,13.817 C5.685,8.363 10.582,4.063 16.328,2.096 Z" id="Shape" fill="#EA4335"></path>
					<path d="M0.916,19.729 C1.335,17.674 2.02,15.669 2.971,13.791 C5.546,15.796 8.121,17.787 10.709,19.791 C9.694,22.747 9.694,26.033 10.709,28.975 C8.134,30.979 5.559,32.983 2.984,34.975 C0.599,30.32 -0.125,24.853 0.916,19.729 Z" id="Shape" fill="#FBBC05"></path>
					<path d="M24.04,19.969 C31.436,19.969 38.843,19.969 46.238,19.969 C46.974,24.117 46.809,28.443 45.643,32.502 C44.564,36.219 42.521,39.669 39.667,42.294 C37.168,40.355 34.67,38.413 32.171,36.472 C34.644,34.81 36.395,32.122 36.889,29.178 C32.602,29.178 28.315,29.178 24.028,29.178 C24.04,26.108 24.04,23.039 24.04,19.969 Z" id="Shape" fill="#4285F4"></path>
					<path d="M2.958,34.987 C5.533,32.996 8.108,30.992 10.683,28.988 C11.672,31.892 13.575,34.467 16.087,36.231 C17.659,37.335 19.461,38.122 21.338,38.502 C23.19,38.882 25.106,38.831 26.97,38.515 C28.823,38.185 30.611,37.513 32.171,36.46 C34.67,38.4 37.168,40.341 39.667,42.281 C36.966,44.781 33.578,46.481 30.001,47.304 C26.044,48.205 21.857,48.231 17.925,47.178 C14.804,46.353 11.874,44.869 9.35,42.851 C6.7,40.747 4.493,38.032 2.958,34.987 Z" id="Shape" fill="#34A853"></path>
			</g>
	</g>
</symbol>

<symbol viewBox="0 0 32 30" id="kinduce-logo-o">
	<g>
		<path d="M25.988,3.805 C22.583,5.668 20.308,9.026 20.308,12.859 C20.308,17.82 24.12,21.985 29.266,23.143 C30.596,20.878 31.362,18.243 31.362,15.427 C31.362,10.771 29.275,6.605 25.988,3.805 Z" id="Shape"></path>
		<path d="M11.616,16.497 C11.616,12.84 7.592,9.786 2.23,9.057 C1.338,10.997 0.837,13.153 0.837,15.427 C0.837,18.501 1.749,21.36 3.313,23.757 C8.124,22.788 11.616,19.904 11.616,16.497 Z" id="Shape"></path>
		<path d="M16.082,19.751 C13.422,23.194 9.258,25.494 4.529,25.744 C7.281,28.335 10.987,29.925 15.065,29.925 C18.797,29.925 22.216,28.596 24.879,26.386 C23.869,23.026 20.422,20.407 16.082,19.751 Z" id="Shape"></path>
		<path d="M16.827,0.183 C16.913,0.514 16.964,0.859 16.964,1.218 C16.964,3.475 15.133,5.306 12.876,5.306 C10.883,5.306 9.226,3.879 8.864,1.991 C7.061,2.965 5.476,4.287 4.201,5.873 C6.156,6.966 8.56,7.614 11.162,7.614 C14.033,7.614 16.664,6.829 18.717,5.521 C20.361,4.472 21.63,3.087 22.351,1.503 C20.652,0.739 18.789,0.275 16.827,0.183 Z" id="Shape"></path>
	</g>
</symbol>

<symbol viewBox="0 0 384 512" id="lock-close">
	<g id="Page-1">
		<g>
			<path d="M320,224 L320,128 C320,57.438 262.594,0 192,0 C121.422,0 64,57.438 64,128 L64,224 C28.656,224 0,252.656 0,288 L0,448 C0,483.344 28.656,512 64,512 L320,512 C355.344,512 384,483.344 384,448 L384,288 C384,252.656 355.344,224 320,224 Z M208,379.094 L208,432 C208,440.844 200.844,448 192,448 C183.156,448 176,440.844 176,432 L176,379.094 C166.609,373.531 160,363.719 160,352 C160,334.312 174.328,320 192,320 C209.672,320 224,334.313 224,352 C224,363.719 217.391,373.531 208,379.094 Z M256,224 L128,224 L128,128 C128,92.687 156.703,64 192,64 C227.281,64 256,92.688 256,128 L256,224 Z" id="Shape"></path>
		</g>
	</g>
</symbol>
<symbol viewBox="0 0 565 350" id="master-card">
	<g id="Page-1" stroke="none" stroke-width="1" fill="none" fill-rule="evenodd">
		<g id="master-card" transform="translate(-1.000000, -1.000000)" fill-rule="nonzero">
			<g id="g3110" transform="translate(0.814659, 0.962128)">
				<path d="M564.692337,174.941084 C564.692337,271.537449 486.533533,349.844287 390.119744,349.844287 C293.705956,349.844287 215.547128,271.537449 215.547128,174.941084 C215.547128,78.3447045 293.705956,0.0378717427 390.119744,0.0378717427 C486.533533,0.0378717427 564.692337,78.3447045 564.692337,174.941084 Z" id="path2997" fill="#F79F1A"></path>
				<path d="M349.330545,174.941084 C349.330545,271.537449 271.171742,349.844287 174.757953,349.844287 C78.3441643,349.844287 0.185336901,271.537449 0.185336901,174.941084 C0.185336901,78.3447045 78.3441643,0.0378717427 174.757953,0.0378717427 C271.171742,0.0378717427 349.330545,78.3447045 349.330545,174.941084 Z" id="path2995" fill="#EA001B"></path>
				<path d="M282.439202,37.255998 C241.706998,69.2750869 215.560698,119.030813 215.560698,174.924696 C215.560698,230.818579 241.706998,280.61228 282.439202,312.631372 C323.171406,280.61228 349.317706,230.818579 349.317706,174.924696 C349.317706,119.030813 323.171406,69.2750869 282.439202,37.255998 Z" id="path2999" fill="#FF5F01"></path>
			</g>
			<g id="g3043" transform="translate(550.767002, 261.986316)" fill="#F79F1A">
				<g id="text3045">
					<path d="M14.4133457,6.72079689 L14.4133457,0.478209582 L12.7834552,0.478209582 L10.9085484,4.7713199 L9.03364162,0.478209582 L7.40375111,0.478209582 L7.40375111,6.72079689 L8.55426206,6.72079689 L8.55426206,2.01222418 L10.3119872,6.07097123 L11.5051098,6.07097123 L13.2628348,2.00157131 L13.2628348,6.72079689 L14.4133457,6.72079689 Z M4.09070564,6.72079689 L4.09070564,1.54349748 L6.17866998,1.54349748 L6.17866998,0.488862444 L0.862883225,0.488862444 L0.862883225,1.54349748 L2.95084755,1.54349748 L2.95084755,6.72079689 L4.09070564,6.72079689 Z" id="path3057"></path>
				</g>
			</g>
		</g>
	</g>
</symbol>

<symbol viewBox="0 0 64 64" id="kinrollee">
	<g>
	<path d="M13.907,20.536c0,1.078,0.825,1.952,1.842,1.952c0.012,0,0.021-0.001,0.032-0.001c0.381,5.148,4.437,10.3,9.39,10.3
		c4.952,0,9.008-5.151,9.39-10.3c0.011,0,0.021,0.001,0.032,0.001c1.017,0,1.841-0.874,1.841-1.952c0-0.797-0.448-1.479-1.091-1.783
		c0.373-1.157,0.577-2.394,0.577-3.684c0-6.296-4.812-11.402-10.749-11.402s-10.75,5.105-10.75,11.402
		c0,1.29,0.206,2.527,0.577,3.684C14.355,19.057,13.907,19.739,13.907,20.536z"/>
	<path d="M48.704,44.701c-4.39-4.263-9.748-7.271-15.511-8.708c-0.146-0.08-0.31-0.123-0.479-0.123h-0.522
		c-0.166,0-0.328,0.042-0.474,0.119c-1.74,0.934-4.127,1.469-6.547,1.469c-2.421,0-4.807-0.535-6.549-1.47
		c-0.146-0.076-0.309-0.118-0.473-0.118h-0.38c-0.078,0-0.155,0.009-0.23,0.026c-5.915,1.399-11.412,4.444-15.901,8.805
		c-0.195,0.188-0.304,0.446-0.304,0.717v3.581C1.333,49.55,1.782,50,2.335,50h45.672c0.553,0,1.001-0.45,1.001-1.001v-3.581
		C49.008,45.147,48.897,44.888,48.704,44.701z"/>
</g>
</symbol>

<symbol viewBox="0 0 48 48" id="marker">
	<path d="M42.178,19.577c0-9.5-7.705-17.203-17.205-17.203c-9.501,0-17.207,7.702-17.207,17.203c0,3.137,0.856,6.07,2.317,8.602
	H10.07l14.896,18.488l14.905-18.488h-0.018C41.324,25.646,42.178,22.713,42.178,19.577z M24.971,24.683
	c-3.991,0-7.228-3.235-7.228-7.225c0-3.993,3.237-7.23,7.228-7.23c3.996,0,7.23,3.237,7.23,7.23
	C32.201,21.448,28.967,24.683,24.971,24.683z"/>
</symbol>

<symbol viewBox="2 2 46 46" id="no">
<circle fill="none" stroke="#f00" stroke-width="3" stroke-miterlimit="10" cx="24.909" cy="25.279" r="21.784"/>
<line fill="none" stroke="#f00" stroke-width="3" stroke-linecap="round" stroke-miterlimit="10" x1="13.589" y1="15.629" x2="36.554" y2="35.092"/>
<line fill="none" stroke="#f00" stroke-width="3" stroke-linecap="round" stroke-miterlimit="10" x1="36.555" y1="15.629" x2="13.59" y2="35.092"/>
</symbol>

<symbol viewBox="0 0 27 48" id="right-arrow">
	<g id="Page-1" stroke="none" stroke-width="1" fill="none" fill-rule="evenodd">
		<g id="right-arrow" transform="translate(1.000000, 1.000000)" stroke-width="4" stroke="#00bc93">
				<polyline id="Shape" points="0.5 0.5 23.167 23.167 1 45.334"></polyline>
		</g>
	</g>
</symbol>

<symbol viewBox="0 0 50 50" id="search">
	<g>
		<path d="M46,33.17 L34.412,25.615 C37.864,17.838 35.284,8.462 27.931,3.667 C25.053,1.791 21.722,0.798 18.299,0.798 C12.299,0.798 6.762,3.797 3.488,8.819 C0.912,12.77 0.029,17.49 1.002,22.107 C1.975,26.723 4.688,30.683 8.64,33.26 C11.518,35.136 14.848,36.128 18.271,36.128 C23.713,36.128 28.767,33.655 32.102,29.451 L43.557,36.918 C44.593,37.593 45.979,37.3 46.655,36.268 C47.328,35.231 47.037,33.846 46,33.17 Z M18.271,31.98 C15.655,31.98 13.108,31.221 10.906,29.785 C7.881,27.815 5.806,24.783 5.061,21.251 C4.317,17.718 4.992,14.108 6.964,11.084 C9.468,7.241 13.706,4.946 18.299,4.946 C20.915,4.946 23.463,5.706 25.666,7.142 C31.63,11.031 33.495,18.858 30.103,24.994 C30.009,25.091 29.922,25.194 29.846,25.31 C29.734,25.484 29.657,25.668 29.598,25.856 C27.093,29.691 22.859,31.98 18.271,31.98 Z" id="Shape"></path>
	</g>
</symbol>

<symbol viewBox="0 0 40 40" id="setting">
	<g id="Page-1">
		<g id="settings">
			<path d="M39.127,19.74 L36.253,19.339 C36.166,17.373 35.744,15.486 34.995,13.714 L37.38,11.914 C37.533,11.796 37.637,11.621 37.663,11.429 C37.69,11.235 37.64,11.039 37.52,10.884 L34.201,6.493 C34.085,6.338 33.911,6.237 33.716,6.209 C33.521,6.181 33.329,6.233 33.174,6.351 L30.972,8.015 C29.515,6.669 27.85,5.614 26.008,4.87 L26.4,2.054 C26.429,1.861 26.377,1.665 26.259,1.51 C26.143,1.354 25.967,1.253 25.776,1.225 L20.329,0.468 C20.126,0.44 19.939,0.491 19.784,0.61 C19.628,0.726 19.527,0.902 19.499,1.095 L19.138,3.709 C17.106,3.794 15.157,4.241 13.33,5.039 L11.669,2.844 C11.424,2.52 10.965,2.458 10.64,2.7 L6.253,6.013 C6.098,6.132 5.996,6.306 5.968,6.499 C5.941,6.692 5.992,6.887 6.11,7.043 L7.681,9.126 C6.319,10.634 5.271,12.336 4.556,14.2 L1.806,13.819 C1.61,13.792 1.418,13.843 1.262,13.96 C1.109,14.078 1.005,14.252 0.979,14.445 L0.225,19.891 C0.168,20.292 0.448,20.663 0.85,20.718 L3.51,21.089 C3.63,23.076 4.099,24.992 4.912,26.803 L2.597,28.553 C2.277,28.795 2.21,29.256 2.456,29.581 L5.772,33.967 C6.015,34.291 6.476,34.352 6.798,34.11 L9.059,32.404 C10.517,33.69 12.203,34.716 13.989,35.407 L13.576,38.409 C13.519,38.81 13.802,39.18 14.202,39.236 L19.646,39.994 C19.679,39.998 19.713,40 19.749,40 C20.109,40 20.423,39.735 20.475,39.368 L20.886,36.449 C22.811,36.337 24.67,35.895 26.427,35.134 L28.302,37.616 C28.546,37.94 29.008,38 29.33,37.76 L33.719,34.448 C33.876,34.331 33.978,34.154 34.004,33.962 C34.032,33.769 33.981,33.573 33.863,33.417 L32.067,31.04 C33.36,29.612 34.375,27.993 35.09,26.216 L38.162,26.643 C38.552,26.691 38.934,26.418 38.993,26.017 L39.75,20.57 C39.808,20.168 39.528,19.795 39.127,19.74 Z M24.129,25.716 C22.895,26.651 21.425,27.144 19.88,27.144 C17.643,27.144 15.587,26.123 14.24,24.341 C11.896,21.237 12.513,16.805 15.621,14.457 C16.856,13.523 18.326,13.031 19.869,13.031 C22.106,13.031 24.157,14.05 25.503,15.828 C27.851,18.933 27.235,23.371 24.129,25.716 Z" id="Shape"></path>
		</g>
	</g>
</symbol>

<symbol viewBox="0 0 36 49" id="share">
	<g id="Page-1">
		<g>
			<polygon id="Shape" points="35.843 49 0.824 49 0.824 18.293 10.608 18.293 10.608 22.156 4.686 22.156 4.686 45.138 31.98 45.138 31.98 22.092 26.702 22.092 26.702 18.229 35.843 18.229"></polygon>
			<rect id="Rectangle-path" x="16.402" y="11.405" width="3.862" height="23.304"></rect>
			<polygon id="Shape" points="6.038 14.56 30.887 14.56 18.334 0.333"></polygon>
		</g>
	</g>
</symbol>
<symbol viewBox="0 0 44 40" id="share-arrow">
	<g id="Page-1">
		<g>
			<path d="M43.5020781,13.0635312 L30.9396484,0.501359375 C30.6288125,0.190523438 30.2609141,0.0350625 29.8356094,0.0350625 C29.4103047,0.0350625 29.0421484,0.190523438 28.7315703,0.501359375 C28.4207344,0.812367188 28.2651016,1.1804375 28.2651016,1.60565625 L28.2651016,7.88674219 L22.7691406,7.88674219 C11.1060469,7.88674219 3.95020313,11.1827891 1.29997656,17.7747109 C0.433296875,19.9662891 0,22.6900781 0,25.9451328 C0,28.6602422 1.03872656,32.3486797 3.11600781,37.0106172 C3.16499219,37.1253437 3.25058594,37.3211953 3.37347656,37.5992031 C3.49628125,37.8770391 3.60653906,38.1223906 3.70467969,38.3352578 C3.80316406,38.5476094 3.90955469,38.7275625 4.0239375,38.8746016 C4.22004687,39.1527812 4.44915625,39.2921719 4.71092187,39.2921719 C4.95627344,39.2921719 5.14851562,39.2104453 5.28764844,39.0469062 C5.4264375,38.8834531 5.49596094,38.67875 5.49596094,38.434 C5.49596094,38.2863594 5.47550781,38.0699687 5.43451562,37.7835391 C5.39360937,37.4971094 5.37307031,37.3053828 5.37307031,37.2070703 C5.29117187,36.0952109 5.25026562,35.0884531 5.25026562,34.1894609 C5.25026562,32.5374844 5.39360937,31.057125 5.67960937,29.7486406 C5.96603906,28.4398984 6.36264062,27.3074141 6.86984375,26.3504141 C7.37696094,25.3930703 8.03103125,24.5676406 8.83274219,23.8724062 C9.63410937,23.1771719 10.4968359,22.6089531 11.4210078,22.1672344 C12.3453516,21.7254297 13.4330625,21.3778125 14.6843984,21.1243828 C15.9356484,20.8708672 17.1950625,20.6949531 18.4628984,20.5967266 C19.7307344,20.4985 21.1660625,20.4496875 22.7691406,20.4496875 L28.2651016,20.4496875 L28.2651016,26.7309453 C28.2651016,27.1561641 28.4203906,27.5243203 28.7309687,27.8349844 C29.0420625,28.1454766 29.4099609,28.3011094 29.8350078,28.3011094 C30.2602266,28.3011094 30.6283828,28.1454766 30.9396484,27.8349844 L43.5018203,15.2723828 C43.8126562,14.9615469 43.9679453,14.5936484 43.9679453,14.1683437 C43.9678594,13.743125 43.8126563,13.3749688 43.5020781,13.0635312 Z" id="Shape"></path>
		</g>
	</g>
</symbol>
<symbol viewBox="0 0 44 35" id="group">
	<g id="Page-1">
		<g id="user-groups">
			<path d="M27.5030147,5.95363785 C28.1994062,6.73422512 28.6914454,7.69827732 28.965925,8.81909299 C29.2264078,9.88298858 29.2846199,11.066323 29.1391974,12.3366525 C29.085292,12.8065122 29.0056183,13.3386754 28.8894812,13.9015595 C29.7890049,14.7725873 30.9674584,15.3255661 32.4996346,15.3254943 C36.7503361,15.3251354 38.2798564,11.0690506 38.6800914,7.57302447 C39.1733507,3.26604894 37.1370049,0.0246199021 32.4996346,0.0246199021 C28.8606264,0.0246199021 26.823491,2.02148777 26.353416,4.9628124 C26.7787015,5.24425449 27.1643654,5.57393148 27.5030147,5.95363785 Z" id="Shape"></path>
			<path d="M43.998062,25.4599935 C43.9517651,24.1034584 43.7927047,22.7405351 43.5558369,21.4048874 C43.2692985,19.7870799 42.9040914,17.4150995 41.4915693,16.3606786 C40.6747341,15.7512104 39.6169396,15.5511648 38.6819576,15.1836607 C38.2266688,15.0047896 37.8188972,14.8271387 37.4363197,14.6249396 C36.1446721,16.0414095 34.4604698,16.7822316 32.4992757,16.7823752 C30.9732007,16.7823752 29.6158042,16.3315367 28.4796281,15.4646721 C28.2180685,16.2737553 27.8679347,17.088509 27.3997977,17.8329201 C27.8109429,18.0804829 28.2556085,18.2782316 28.7959543,18.4905514 C29.0351191,18.5845808 29.2976835,18.6704274 29.575752,18.7612268 C30.3274127,19.0068515 31.1792039,19.285279 31.944,19.8562023 C33.7620685,21.2133116 34.2096052,23.7563393 34.5364111,25.6133116 L34.5715824,25.8137162 C34.7406199,26.765925 34.8647243,27.7014095 34.9446134,28.6102643 C36.3956085,28.4616117 37.8392104,28.2075889 39.2546754,27.9087047 C40.3988907,27.6671713 41.535354,27.3724502 42.6360718,26.9753736 C43.5152822,26.658186 44.0341664,26.5107537 43.998062,25.4599935 Z" id="Shape"></path>
			<path d="M11.5717847,15.3254225 C13.1038891,15.3255661 14.2822708,14.7725155 15.1818662,13.9014878 C15.0657292,13.3386754 14.9860555,12.8064405 14.9321501,12.3365808 C14.7867276,11.066323 14.8450114,9.8829168 15.1054225,8.81902121 C15.3798303,7.69827732 15.8719413,6.73415334 16.5683328,5.95356607 C16.9069821,5.57378793 17.2925742,5.24411093 17.7177879,4.96266884 C17.2477129,2.02134421 15.2105775,0.0244763458 11.5715693,0.0244763458 C6.9342708,0.0244763458 4.89785318,3.26597716 5.39104078,7.57288091 C5.79156281,11.0690506 7.3210832,15.3251354 11.5717847,15.3254225 Z" id="Shape"></path>
			<path d="M12.1274192,19.8562741 C12.8922153,19.2853507 13.7441501,19.0069233 14.4956672,18.7612985 C14.7738075,18.6704992 15.0362284,18.5846525 15.2754649,18.4906232 C15.8158108,18.2783752 16.2606199,18.0806982 16.6716215,17.8329918 C16.2036281,17.0887243 15.8533507,16.2738271 15.591863,15.4647439 C14.4556868,16.3316085 13.0982186,16.782447 11.5722153,16.782447 C9.61109299,16.7823752 7.92674715,16.0414095 6.63517129,14.6250114 C6.25266558,14.8272104 5.84475041,15.0047896 5.38953344,15.1837325 C4.45455139,15.5512365 3.39675693,15.7512822 2.5799217,16.3607504 C1.16747145,17.4152431 0.802192496,19.7870799 0.51565416,21.4049592 C0.278786297,22.7405351 0.119725938,24.1034584 0.0734290375,25.4600653 C0.0373964111,26.5108972 0.556208809,26.6582577 1.43534747,26.9754454 C2.53599347,27.3724502 3.6726721,27.6671713 4.81674388,27.9087765 C6.23220881,28.2077325 7.67588254,28.4617553 9.12680587,28.6103361 C9.20662316,27.7014812 9.33072757,26.7661403 9.49983687,25.8137879 L9.53500816,25.6133834 C9.86188581,23.7564829 10.3093507,21.2133834 12.1274192,19.8562741 Z" id="Shape"></path>
			<path d="M33.8326982,25.9409788 L33.7973116,25.7396411 C33.4916803,24.0028254 33.0729984,21.6243132 31.4867015,20.4401175 C30.8176574,19.9407569 30.0603263,19.6933377 29.3277586,19.4538858 C29.0392822,19.3596411 28.7670277,19.2705644 28.5075498,19.1686395 C28.1293507,19.0200587 27.7886199,18.8745644 27.4693507,18.7137096 C26.128248,20.5032822 24.2694812,21.4455139 22.0584992,21.4457292 C19.8480914,21.4457292 17.9896117,20.5034258 16.648509,18.7137096 C16.329168,18.874708 15.9884372,19.0201305 15.6100946,19.168783 C15.3509755,19.2705644 15.0785057,19.3596411 14.7901011,19.4538858 C14.0574617,19.6932659 13.2999152,19.9408287 12.6310865,20.4401175 C11.0442871,21.6244568 10.6258923,24.0035432 10.3203328,25.740646 L10.2849462,25.9412659 C10.0296313,27.3830016 9.87724633,28.7816705 9.83216966,30.0982251 C9.77926917,31.6428189 10.7380098,31.9871387 11.5837716,32.2910473 L11.6748581,32.3238499 C12.6919543,32.6907798 13.8297096,33.005168 15.1530114,33.2848157 C17.8551713,33.8551648 20.0480653,34.127491 22.0536183,34.1417031 L22.0587863,34.1417031 L22.0639543,34.1417031 C24.0698662,34.1274192 26.2626166,33.8551648 28.9643458,33.2848157 C30.287863,33.0053116 31.4255465,32.6909233 32.4422121,32.3239217 L32.5332268,32.2911909 C33.3792039,31.987354 34.3382316,31.643106 34.2853312,30.0981533 C34.2403263,28.7780816 34.0878695,27.3795563 33.8326982,25.9409788 Z" id="Shape"></path>
			<path d="M15.935106,12.5618206 C16.3354127,16.058062 17.8647178,20.3145057 22.1154192,20.3142904 C26.3661207,20.314075 27.8956411,16.058062 28.2959478,12.5618206 C28.7891354,8.25498858 26.7525024,5.01363132 22.1154192,5.01363132 C17.4790538,5.01348777 15.4411289,8.25462969 15.935106,12.5618206 Z" id="Shape"></path>
		</g>
	</g>
</symbol>

<symbol viewBox="0 0 48 48" id="warning">
	<path d="M47.133,39.587l-18.1-31.888c-0.882-1.555-2.529-2.513-4.315-2.513c-1.788,0-3.435,0.958-4.317,2.513L2.302,39.587
	c-0.872,1.535-0.861,3.42,0.027,4.947C3.217,46.06,4.852,47,6.618,47h36.198c1.768,0,3.4-0.94,4.289-2.466
	C47.994,43.007,48.004,41.122,47.133,39.587z M27.189,41.141c-0.606,0.54-1.326,0.813-2.138,0.813c-0.822,0-1.549-0.27-2.163-0.802
	c-0.627-0.545-0.946-1.309-0.946-2.27c0-0.844,0.301-1.57,0.893-2.162c0.591-0.591,1.325-0.892,2.179-0.892
	c0.853,0,1.592,0.299,2.196,0.889c0.605,0.593,0.913,1.321,0.913,2.165C28.124,39.831,27.81,40.589,27.189,41.141z M27.993,20.608
	l-0.788,9.03c-0.088,1.124-0.278,1.972-0.581,2.588c-0.334,0.681-0.915,1.042-1.682,1.042c-0.783,0-1.359-0.354-1.668-1.021
	c-0.274-0.595-0.463-1.459-0.578-2.643l-0.588-8.789c-0.111-1.736-0.166-2.948-0.166-3.705c0-1.094,0.298-1.966,0.885-2.593
	c0.592-0.632,1.378-0.955,2.334-0.955c1.179,0,1.985,0.428,2.398,1.272c0.379,0.778,0.564,1.854,0.564,3.286
	C28.124,18.932,28.08,19.768,27.993,20.608z"/>
</symbol>

<symbol viewBox="2 2 46 46" id="yes">
	<circle fill="none" stroke="#0f0" stroke-width="3" stroke-miterlimit="10" cx="24.909" cy="25.279" r="21.784"/>
<polyline fill="none" stroke="#0f0" stroke-width="3" stroke-linecap="round" stroke-miterlimit="10" points="35.821,15.711
	21.244,33.951 12.938,27.437 "/>
</symbol>

<symbol viewBox="0 0 24 24" id="facebook-svg">
	<g>
			<g>
					<path d="M19.802956,0 L4.137931,0 C1.856158,0 0,1.85615764 0,4.13793103 L0,19.8029557 C0,22.0847291 1.856158,23.9408867 4.137931,23.9408867 L12.555665,23.9408867 L12.555665,15.3931034 L10.191133,15.3931034 L10.191133,11.8463054 L12.555665,11.8463054 L12.555665,9.5408867 C12.555665,7.06995074 14.565517,5.06009852 17.036453,5.06009852 L19.921182,5.06009852 L19.921182,8.60689655 L17.036453,8.60689655 C16.516256,8.60689655 16.102463,9.03251232 16.102463,9.5408867 L16.102463,11.8463054 L19.140887,11.8463054 L19.140887,15.3931034 L16.102463,15.3931034 L16.102463,23.929064 L17.757635,23.929064 L19.802956,23.929064 C22.084729,23.929064 23.940887,22.0729064 23.940887,19.791133 L23.940887,4.13793103 C23.940887,1.85615764 22.084729,0 19.802956,0 Z"></path>
			</g>
	</g>
</symbol>

<symbol viewBox="0 0 24 24" id="goole-svg">
	<g>
			<g fill="#8B8C8D" fill-rule="nonzero">
					<path d="M19.791133,0 L4.137931,0 C1.856158,0 0,1.85615764 0,4.13793103 L0,19.8029557 C0,22.0847291 1.856158,23.9408867 4.137931,23.9408867 L19.802956,23.9408867 C22.084729,23.9408867 23.940887,22.0847291 23.940887,19.8029557 L23.940887,4.13793103 C23.929064,1.85615764 22.072906,0 19.791133,0 Z M20.48867,11.964532 C20.48867,16.6699507 16.669951,20.48867 11.964532,20.48867 C7.259113,20.48867 3.440394,16.6699507 3.440394,11.964532 C3.440394,7.2591133 7.259113,3.44039409 11.964532,3.44039409 C14.80197,3.44039409 17.438424,4.84729064 19.034483,7.2 L16.09064,9.1862069 C15.15665,7.81477833 13.619704,6.98719212 11.964532,6.98719212 C9.221675,6.98719212 6.987192,9.22167488 6.987192,11.964532 C6.987192,14.7073892 9.221675,16.9418719 11.964532,16.9418719 C14.080788,16.9418719 15.901478,15.6059113 16.610837,13.737931 L11.964532,13.737931 L11.964532,10.191133 L20.48867,10.191133 L20.48867,11.964532 Z"></path>
			</g>
	</g>
</symbol>

<symbol viewBox="0 0 24 24" id="instagram-svg">
	<g>
			<g fill="#8B8C8D" fill-rule="nonzero">
					<path d="M19.791133,0 L4.137931,0 C1.856158,0 0,1.85615764 0,4.13793103 L0,19.8029557 C0,22.0847291 1.856158,23.9408867 4.137931,23.9408867 L19.802956,23.9408867 C22.084729,23.9408867 23.940887,22.0847291 23.940887,19.8029557 L23.940887,4.13793103 C23.929064,1.85615764 22.072906,0 19.791133,0 Z M11.964532,18.8807882 C8.157635,18.8807882 5.048276,15.7832512 5.048276,11.964532 C5.048276,8.14581281 8.145813,5.04827586 11.964532,5.04827586 C15.783251,5.04827586 18.880788,8.14581281 18.880788,11.964532 C18.880788,15.7832512 15.771429,18.8807882 11.964532,18.8807882 Z M21.410837,4.23251232 C21.410837,5.17832512 20.642365,5.94679803 19.696552,5.94679803 C18.750739,5.94679803 17.982266,5.17832512 17.982266,4.23251232 C17.982266,3.28669951 18.750739,2.5182266 19.696552,2.5182266 C20.642365,2.5182266 21.410837,3.28669951 21.410837,4.23251232 Z M11.964532,8.59507389 C13.82069,8.59507389 15.33399,10.1083744 15.33399,11.964532 C15.33399,13.8206897 13.82069,15.3339901 11.964532,15.3339901 C10.108374,15.3339901 8.595074,13.8206897 8.595074,11.964532 C8.595074,10.1083744 10.108374,8.59507389 11.964532,8.59507389 Z"></path>
			</g>
	</g>
</symbol>

<symbol viewBox="0 0 24 24" id="twitter-svg">
	<g>
			<g>
					<path d="M19.802956,0 L4.137931,0 C1.856158,0 0,1.85615764 0,4.13793103 L0,19.8029557 C0,22.0847291 1.856158,23.9408867 4.137931,23.9408867 L19.802956,23.9408867 C22.084729,23.9408867 23.940887,22.0847291 23.940887,19.8029557 L23.940887,4.13793103 C23.940887,1.85615764 22.084729,0 19.802956,0 Z M18.502463,8.70147783 C18.502463,8.70147783 18.892611,12.8275862 16.197044,15.7477833 C11.196059,21.1507389 3.759606,17.3438424 3.759606,17.3438424 C6.951724,17.4502463 8.7133,16.0788177 8.7133,16.0788177 C6.561576,15.8068966 5.6867,13.6078818 5.6867,13.6078818 C6.561576,13.8325123 7.117241,13.6078818 7.117241,13.6078818 C4.693596,12.7802956 4.480788,10.191133 4.480788,10.191133 C5.142857,10.7940887 6.076847,10.6285714 6.076847,10.6285714 C3.771429,9.09162562 4.646305,5.78128079 4.646305,5.78128079 C4.646305,5.78128079 7.77931,9.52906404 11.905419,9.46995074 C11.905419,9.46995074 11.515271,6.95172414 13.607882,5.78128079 C15.641379,4.65812808 17.213793,5.66305419 17.745813,6.62068966 C18.301478,6.50246305 19.282759,6.11231527 19.90936,5.56847291 C19.921182,6.59704433 18.727094,7.42463054 18.727094,7.42463054 C19.826601,7.2591133 20.429557,6.86896552 20.429557,6.86896552 C19.95665,8.01576355 18.502463,8.70147783 18.502463,8.70147783 Z"></path>
			</g>
	</g>
</symbol>

<symbol viewBox="0 0 24 24" id="youtube-svg">
	<g>
			<g fill="#8B8C8D" fill-rule="nonzero">
					<path d="M19.802956,0 L4.137931,0 C1.856158,0 0,1.85615764 0,4.13793103 L0,19.8029557 C0,22.0847291 1.856158,23.9408867 4.137931,23.9408867 L19.802956,23.9408867 C22.084729,23.9408867 23.940887,22.0847291 23.940887,19.8029557 L23.940887,4.13793103 C23.940887,1.85615764 22.072906,0 19.802956,0 Z M18.632512,13.3950739 L9.623645,18.8453202 C8.500493,19.5192118 7.081773,18.7152709 7.081773,17.4147783 L7.081773,6.51428571 C7.081773,5.20197044 8.512315,4.39802956 9.623645,5.08374384 L18.632512,10.5339901 C19.720197,11.1842365 19.720197,12.7448276 18.632512,13.3950739 Z"></path>
			</g>
	</g>
</symbol>

<symbol viewBox="0 0 52 36" id="american-express">
	<g>
			<g fill-rule="nonzero">
					<path d="M52,32.8332266 C52,34.5309453 50.6238281,35.9072187 48.9262109,35.9072187 L3.07378906,35.9072187 C1.37617188,35.9073203 0,34.5309453 0,32.8332266 L0,3.11969531 C0,1.42207812 1.37617188,0.0458046875 3.07378906,0.0458046875 L48.9262109,0.0458046875 C50.6239297,0.0458046875 52,1.42207812 52,3.11969531 L52,32.8332266 L52,32.8332266 Z" id="Shape" fill="#306FC5"></path>
					<path d="M2.18532031,32.8332266 L2.18532031,3.11969531 C2.18532031,1.42207812 3.56169531,0.0458046875 5.2593125,0.0458046875 L3.0736875,0.0458046875 C1.37617188,0.0458046875 0,1.42197656 0,3.11969531 L0,32.8333281 C0,34.5310469 1.37617188,35.9073203 3.07378906,35.9073203 L5.25941406,35.9073203 C3.56179687,35.9073203 2.18532031,34.5309453 2.18532031,32.8332266 Z" id="Shape" fill="#202121" opacity="0.15"></path>
					<g id="Group" transform="translate(3.656250, 10.562500)" fill="#FFFFFF">
							<polygon id="Shape" points="3.91929688 3.83378125 5.473 3.83378125 4.69635156 1.85635937"></polygon>
							<polygon id="Shape" points="12.1820156 10.4718047 12.1820156 11.3900313 14.7951172 11.3900313 14.7951172 12.3789453 12.1820156 12.3789453 12.1820156 13.4385469 15.0774609 13.4385469 16.4192031 11.955125 15.1481484 10.4718047"></polygon>
							<polygon id="Shape" points="32.5912031 1.85635937 31.7436641 3.83378125 33.3681562 3.83378125"></polygon>
							<polygon id="Shape" points="19.7384688 14.0029297 19.7384688 9.97760156 17.9022187 11.955125"></polygon>
							<path d="M23.1989063,11.1076875 C23.1282187,10.6839687 22.8454687,10.4718047 22.4215469,10.4718047 L20.9388359,10.4718047 L20.9388359,11.7429609 L22.4926406,11.7429609 C22.9162578,11.7430625 23.1989063,11.5313047 23.1989063,11.1076875 Z" id="Shape"></path>
							<path d="M28.1419531,11.6020937 C28.2832266,11.5313047 28.3541172,11.3192422 28.3541172,11.1077891 C28.4248047,10.8255469 28.2832266,10.6840703 28.1419531,10.6133828 C28.0010859,10.5426953 27.7889219,10.5426953 27.5773672,10.5426953 L26.1646328,10.5426953 L26.1646328,11.6727812 L27.5772656,11.6727812 C27.7888203,11.6727813 28.0009844,11.6727813 28.1419531,11.6020937 Z" id="Shape"></path>
							<path d="M38.3111016,0.020109375 L38.3111016,0.867546875 L37.8876875,0.020109375 L34.5688281,0.020109375 L34.5688281,0.867546875 L34.1449062,0.020109375 L29.6251719,0.020109375 C28.8484219,0.020109375 28.2125391,0.161484375 27.6478516,0.443929688 L27.6478516,0.020109375 L24.4700625,0.020109375 L24.4700625,0.090796875 L24.4700625,0.443929688 C24.1170313,0.161585938 23.6933125,0.020109375 23.1283203,0.020109375 L11.7583984,0.020109375 L10.9812422,1.78567187 L10.2045938,0.020109375 L7.66238281,0.020109375 L6.60298438,0.020109375 L6.60298438,0.867546875 L6.24985156,0.020109375 L6.17916406,0.020109375 L3.14254687,0.020109375 L1.72991406,3.33917187 L0.105828125,6.94078125 L0.07596875,7.01157031 L0.105828125,7.01157031 L3.70753906,7.01157031 L3.75263281,7.01157031 L3.77822656,6.94078125 L4.20214844,5.8816875 L5.12017187,5.8816875 L5.54389062,7.01157031 L9.6395,7.01157031 L9.6395,6.94078125 L9.6395,6.16413281 L9.99283594,7.01146875 L12.0406406,7.01146875 L12.3935703,6.16413281 L12.3935703,6.94078125 L12.3935703,7.01157031 L14.0178594,7.01157031 L22.1393047,7.01157031 L22.2099922,7.01157031 L22.2099922,5.17532031 L22.3515703,5.17532031 C22.4926406,5.17532031 22.4926406,5.17532031 22.4926406,5.38728125 L22.4926406,6.94088281 L27.5773672,6.94088281 L27.5773672,6.51716406 C28.0010859,6.72932812 28.6362578,6.94088281 29.4837969,6.94088281 L31.6026953,6.94088281 L32.0264141,5.81120312 L33.0148203,5.81120312 L33.4385391,6.94088281 L37.5343516,6.94088281 L37.5343516,6.23482031 L37.5343516,5.88178906 L38.1702344,6.94088281 L38.3111016,6.94088281 L38.3819922,6.94088281 L41.4892969,6.94088281 L41.4892969,0.020109375 L38.3113047,0.020109375 L38.3113047,0.020109375 L38.3111016,0.020109375 Z M14.3711953,5.95247656 L13.6648281,5.95247656 L13.2412109,5.95247656 L13.2412109,5.5290625 L13.2412109,2.06821875 L13.1705234,2.23021094 L13.1705234,2.22828125 L11.5276484,5.95247656 L11.4756484,5.95247656 L11.0979375,5.95247656 L10.4868359,5.95247656 L8.7920625,2.06821875 L8.7920625,5.95247656 L6.391125,5.95247656 L5.89682031,4.89317969 L3.49547656,4.89317969 L3.00107031,5.95247656 L1.75967187,5.95247656 L3.8488125,1.00892187 L5.61417187,1.00892187 L7.59149219,5.74041406 L7.59149219,1.00892187 L8.01510938,1.00892187 L9.46247656,1.00892187 L9.49578906,1.07971094 L9.49822656,1.07971094 L10.3892344,3.01894531 L11.0290781,4.47189844 L11.0517266,4.39867187 L12.4640547,1.00902344 L14.3710938,1.00902344 L14.3710938,5.95247656 L14.3711953,5.95247656 L14.3711953,5.95247656 Z M19.2441641,2.06821875 L16.4898906,2.06821875 L16.4898906,2.98624219 L19.1734766,2.98624219 L19.1734766,3.97485156 L16.4898906,3.97485156 L16.4898906,4.96386719 L19.2441641,4.96386719 L19.2441641,6.02285938 L15.2894219,6.02285938 L15.2894219,1.00902344 L19.2441641,1.00902344 L19.2441641,2.06821875 L19.2441641,2.06821875 Z M24.2811563,3.88923438 C24.2829844,3.89085937 24.2853203,3.89197656 24.2875547,3.8935 C24.3142656,3.92173437 24.3371172,3.95007031 24.3566172,3.9771875 C24.4918984,4.15451563 24.6012812,4.41827344 24.6067656,4.80502344 C24.6071719,4.81172656 24.6074766,4.81832813 24.6078828,4.82503125 C24.6078828,4.82889063 24.6085938,4.83224219 24.6085938,4.83620313 C24.6085938,4.8384375 24.6083906,4.84016406 24.6083906,4.84229688 C24.6100156,4.88119531 24.6110313,4.92090625 24.6110313,4.96386719 L24.6110313,5.95257813 L23.5519375,5.95257813 L23.5519375,5.38738281 C23.5519375,5.1049375 23.5519375,4.68111719 23.3397734,4.39867188 C23.2730469,4.33194531 23.2055078,4.28796875 23.1319766,4.2566875 C23.0261484,4.18813281 22.8255625,4.18701563 22.4926406,4.18701563 L21.2210781,4.18701563 L21.2210781,5.95257813 L20.0208125,5.95257813 L20.0208125,1.00902344 L22.7046016,1.00902344 C23.3397734,1.00902344 23.7636953,1.00902344 24.1169297,1.22088281 C24.4629531,1.42867969 24.6719688,1.77328125 24.6798906,2.31897656 C24.6635391,3.07053906 24.1811172,3.48288281 23.8342813,3.62192188 C23.8342812,3.62192188 24.0699062,3.66935156 24.2811563,3.88923438 Z M26.6592422,5.95247656 L25.4585703,5.95247656 L25.4585703,1.00892188 L26.6592422,1.00892188 L26.6592422,5.95247656 Z M40.4303047,5.95247656 L38.8763984,5.95247656 L36.6166328,2.20939063 L36.6166328,5.31669531 L36.6092187,5.30938281 L36.6092187,5.95552344 L35.4161641,5.95552344 L35.4161641,5.95257813 L34.2154922,5.95257813 L33.7917734,4.89328125 L31.3198437,4.89328125 L30.896125,6.02296094 L29.5543828,6.02296094 C28.9897969,6.02296094 28.283125,5.88189062 27.8596094,5.45817187 C27.4358906,5.03445312 27.2242344,4.46946094 27.2242344,3.55153906 C27.2242344,2.845375 27.3653047,2.13870312 27.8596094,1.57391406 C28.2124375,1.14989062 28.8483203,1.00902344 29.6249687,1.00902344 L30.7551562,1.00902344 L30.7551562,2.06821875 L29.6249687,2.06821875 C29.20125,2.06821875 28.9897969,2.13860156 28.7067422,2.35086719 C28.4952891,2.562625 28.3539141,2.98624219 28.3539141,3.48054687 C28.3539141,4.04564062 28.4246016,4.39867187 28.7067422,4.68111719 C28.9191094,4.89328125 29.2013516,4.96396875 29.5543828,4.96396875 L30.0486875,4.96396875 L31.6727734,1.07991406 L32.3793437,1.07991406 L33.4384375,1.07991406 L35.4160625,5.81140625 L35.4160625,5.57009375 L35.4160625,3.97505469 L35.4160625,3.83398437 L35.4160625,1.08001562 L37.1814219,1.08001562 L39.2290234,4.54025 L39.2290234,1.08001562 L40.4301016,1.08001562 L40.4301016,5.95267969 L40.4303047,5.95267969 L40.4303047,5.95247656 Z" id="Shape"></path>
							<path d="M23.2741641,3.06789844 C23.2947812,3.04585937 23.3134687,3.020875 23.3293125,2.99223437 C23.3932969,2.89097656 23.466625,2.70857031 23.4271172,2.45964062 C23.4254922,2.43678906 23.4213281,2.41566406 23.4164531,2.39525 C23.4151328,2.3895625 23.4153359,2.38458594 23.4138125,2.37889844 L23.4131016,2.379 C23.3779609,2.25803906 23.2882813,2.18369531 23.1988047,2.13860156 C23.0572266,2.06821875 22.8453672,2.06821875 22.6336094,2.06821875 L21.2209766,2.06821875 L21.2209766,3.19830469 L22.6336094,3.19830469 C22.8453672,3.19830469 23.0573281,3.19830469 23.1988047,3.12751563 C23.2200312,3.11675 23.2389219,3.102125 23.2571016,3.08557031 L23.2573047,3.08648437 C23.2574062,3.08638281 23.2646172,3.07886719 23.2741641,3.06789844 Z" id="Shape"></path>
							<path d="M44.5966016,13.014625 C44.5966016,12.5203203 44.4555313,12.0258125 44.2437734,11.6727813 L44.2437734,8.49499219 L44.2405234,8.49499219 L44.2405234,8.28282813 C44.2405234,8.28282813 41.2804844,8.28282813 40.8399063,8.28282813 C40.3995313,8.28282813 39.8651094,8.70644531 39.8651094,8.70644531 L39.8651094,8.28282813 L36.6167344,8.28282813 C36.122125,8.28282813 35.4869531,8.42420313 35.2041016,8.70644531 L35.2041016,8.28282813 L29.4134141,8.28282813 L29.4134141,8.49499219 L29.4134141,8.70634375 C28.99,8.35351563 28.2125391,8.28272656 27.8597109,8.28272656 L24.0461406,8.28272656 L24.0461406,8.49489063 L24.0461406,8.70624219 C23.6931094,8.35341406 22.8452656,8.282625 22.4213438,8.282625 L18.1847656,8.282625 L17.1958516,9.34202344 L16.2777266,8.282625 L15.9820781,8.282625 L15.5009766,8.282625 L9.92214844,8.282625 L9.92214844,8.49478906 L9.92214844,9.05267188 L9.92214844,15.4156641 L16.1367578,15.4156641 L17.1578672,14.39425 L18.0429844,15.4156641 L18.113875,15.4156641 L21.6947656,15.4156641 L21.8570625,15.4156641 L21.92775,15.4156641 L21.9980313,15.4156641 L21.9980313,14.7095 L21.9980313,13.7914766 L22.3513672,13.7914766 C22.8452656,13.7914766 23.4811484,13.7914766 23.9754531,13.5793125 L23.9754531,15.3446719 L23.9754531,15.48625 L27.1534453,15.48625 L27.1534453,15.3446719 L27.1534453,13.65 L27.2943125,13.65 C27.5064766,13.65 27.5064766,13.65 27.5064766,13.8618594 L27.5064766,15.3446719 L27.5064766,15.48625 L37.1105313,15.48625 C37.7466172,15.48625 38.3817891,15.3446719 38.7348203,15.0622266 L38.7348203,15.3446719 L38.7348203,15.48625 L41.7717422,15.48625 C42.4069141,15.48625 43.043,15.4156641 43.4667187,15.1330156 C44.1169219,14.7429141 44.5267266,14.0523906 44.5876641,13.2288203 C44.5905078,13.2044453 44.5940625,13.1800703 44.5962969,13.1555938 L44.5921328,13.1516328 C44.5947734,13.1059297 44.5966016,13.0607344 44.5966016,13.014625 Z M22.3514688,12.5910078 L20.9387344,12.5910078 L20.9387344,12.8023594 L20.9387344,13.2262813 L20.9387344,13.6501016 L20.9387344,14.4269531 L18.6175234,14.4269531 L17.2665391,12.8731484 L17.2618672,12.8783281 L17.1958516,12.8023594 L15.64225,14.4269531 L11.1226172,14.4269531 L11.1226172,9.48360156 L15.7129375,9.48360156 L16.9670313,10.8572344 L17.2306875,11.1448594 L17.2664375,11.1077891 L18.7496563,9.48370312 L22.4924375,9.48370312 C23.2188125,9.48370312 24.0322266,9.66296094 24.3404688,10.4020312 C24.3775391,10.5483828 24.3990703,10.7110859 24.3990703,10.8959297 C24.3990703,12.3082578 23.4103594,12.5910078 22.3514688,12.5910078 Z M29.4134141,12.5202188 C29.5544844,12.7315703 29.6251719,13.0145234 29.6251719,13.4384453 L29.6251719,14.4268516 L28.4248047,14.4268516 L28.4248047,13.7914766 C28.4248047,13.5085234 28.4248047,13.0145234 28.2126406,12.8023594 C28.0717734,12.5910078 27.7889219,12.5910078 27.3655078,12.5910078 L26.0944531,12.5910078 L26.0944531,14.4269531 L24.8939844,14.4269531 L24.8939844,9.41291406 L27.5773672,9.41291406 C28.1419531,9.41291406 28.6362578,9.41291406 28.99,9.62457031 C29.3428281,9.83663281 29.6251719,10.1897656 29.6251719,10.7547578 C29.6251719,11.5314063 29.1310703,11.955125 28.7778359,12.0966016 C29.1310703,12.2372656 29.3428281,12.3789453 29.4134141,12.5202188 Z M34.2863828,10.4718047 L31.5318047,10.4718047 L31.5318047,11.3899297 L34.2154922,11.3899297 L34.2154922,12.3788438 L31.5318047,12.3788438 L31.5318047,13.3676563 L34.2863828,13.3676563 L34.2863828,14.4268516 L30.3316406,14.4268516 L30.3316406,9.4128125 L34.2863828,9.4128125 L34.2863828,10.4718047 Z M37.2522109,14.4269531 L34.9922422,14.4269531 L34.9922422,13.3677578 L37.2522109,13.3677578 C37.4636641,13.3677578 37.6052422,13.3677578 37.7468203,13.2263828 C37.8175078,13.1555938 37.8876875,13.014625 37.8876875,12.87325 C37.8876875,12.7316719 37.8175078,12.5911094 37.7468203,12.5203203 C37.6759297,12.4497344 37.5344531,12.3790469 37.3226953,12.3790469 C36.1927109,12.3083594 34.8509688,12.3790469 34.8509688,10.8255469 C34.8509688,10.1192813 35.2746875,9.34232813 36.5459453,9.34232813 L38.8762969,9.34232813 L38.8762969,10.5426953 L36.6872187,10.5426953 C36.4754609,10.5426953 36.3339844,10.5426953 36.1926094,10.6133828 C36.0517422,10.6841719 36.0517422,10.8255469 36.0517422,10.9666172 C36.0517422,11.1785781 36.1926094,11.2492656 36.3338828,11.3193438 C36.4754609,11.3901328 36.6165313,11.3901328 36.7576016,11.3901328 L37.3932813,11.3901328 C38.0289609,11.3901328 38.4525781,11.5314063 38.7350234,11.8139531 C38.9469844,12.0259141 39.0882578,12.3790469 39.0882578,12.87325 C39.0882578,13.9322422 38.4526797,14.4269531 37.2522109,14.4269531 Z M43.3255469,13.9322422 C43.0434063,14.2150937 42.5487969,14.4269531 41.8423281,14.4269531 L39.5829687,14.4269531 L39.5829687,13.3677578 L41.8422266,13.3677578 C42.0541875,13.3677578 42.1957656,13.3677578 42.3368359,13.2263828 C42.4072187,13.1555937 42.4781094,13.014625 42.4781094,12.87325 C42.4781094,12.7316719 42.4072188,12.5911094 42.3368359,12.5203203 C42.2661484,12.4497344 42.1250781,12.3790469 41.9131172,12.3790469 C40.7835391,12.3083594 39.4413906,12.3790469 39.4413906,10.8256484 C39.4413906,10.1544219 39.8253984,9.54809375 40.7724688,9.36802344 C40.8857109,9.35238281 41.0053516,9.34232812 41.1363672,9.34232812 L43.4670234,9.34232812 L43.4670234,10.5426953 L41.9131172,10.5426953 L41.3483281,10.5426953 L41.2776406,10.5426953 C41.0656797,10.5426953 40.9246094,10.5426953 40.7835391,10.6133828 C40.7124453,10.6841719 40.6417578,10.8255469 40.6417578,10.9666172 C40.6417578,11.1785781 40.7124453,11.2492656 40.9246094,11.3193438 C41.0656797,11.3901328 41.2069531,11.3901328 41.3483281,11.3901328 L41.4185078,11.3901328 L41.9837031,11.3901328 C42.2923516,11.3901328 42.5257422,11.4282188 42.7393281,11.5032734 C42.9349375,11.5740625 43.5825,11.8637188 43.7273281,12.6198516 C43.7399219,12.6990703 43.7491641,12.7817422 43.7491641,12.87325 C43.7491641,13.2970703 43.6078906,13.6501016 43.3255469,13.9322422 Z" id="Shape"></path>
					</g>
			</g>
	</g>
</symbol>

<symbol viewBox="0 0 54 41" id="diners-club">
	<g>
			<g id="diners-club" fill-rule="nonzero">
					<path d="M51.5454258,0.0519960937 L27,0.0519960937 L2.45457422,0.0519960937 C1.09898437,0.0519960937 0,1.15098047 0,2.50657031 L0,37.5715547 C0,38.9271445 1.09898437,40.0261289 2.45457422,40.0261289 L27,40.0261289 L51.5454258,40.0261289 C52.9010156,40.0261289 54,38.9271445 54,37.5715547 L54,2.50657031 C54,1.15098047 52.9010156,0.0519960937 51.5454258,0.0519960937 Z" id="Shape" fill="#DEDEE0"></path>
					<g id="Group" transform="translate(13.394531, 9.070312)" fill="#3D6DEB">
							<path d="M5.10289453,10.9503984 C5.10732422,13.4771133 6.68133984,15.6308906 8.90968359,16.486875 L8.90968359,5.40938672 C6.68133984,6.27096094 5.10732422,8.42473828 5.10289453,10.9503984 Z" id="Shape"></path>
							<path d="M23.7087422,3.13073437 C21.6084375,1.19707031 18.7371563,0.0879609375 15.8217891,0.0879609375 L13.6054688,0.0879609375 L11.0030273,0.0879609375 C4.75526953,0.0879609375 0.0439804687,4.80325781 0.0439804687,11.0561836 C0.0439804687,17.0076797 4.94142187,21.8496445 10.9611562,21.8496445 L13.6054688,21.8496445 L15.8185195,21.8496445 L15.8722031,21.8498555 C15.8724141,21.8498555 15.8725195,21.8498555 15.8727305,21.8498555 C18.7216523,21.8498555 21.5854453,20.6977148 23.7294141,18.6890625 C25.9461563,16.6121719 27.1670625,13.9015195 27.1670625,11.0563945 C27.166957,7.99853906 25.9387734,5.18389453 23.7087422,3.13073437 Z M13.6054688,19.2689297 C12.7925156,19.5208945 11.9293594,19.6570547 11.0347734,19.6570547 C6.23436328,19.6570547 2.32885547,15.7513359 2.32885547,10.9505039 C2.32885547,6.14967187 6.23436328,2.24395313 11.0347734,2.24395313 C11.9293594,2.24395313 12.7925156,2.38011328 13.6054688,2.63207813 C17.1528047,3.73169531 19.7368945,7.04489063 19.7368945,10.9505039 C19.7368945,14.8561172 17.1528047,18.169207 13.6054688,19.2689297 Z" id="Shape"></path>
							<path d="M13.6054688,5.60503125 C13.4588672,5.53415625 13.3097344,5.46792188 13.1569102,5.40917578 L13.1569102,16.4866641 C13.3099453,16.427918 13.4589727,16.3617891 13.6054688,16.291125 C15.5930273,15.3320977 16.9631719,13.3036172 16.9674961,10.9503984 C16.9631719,8.59812891 15.5930273,6.56564063 13.6054688,5.60503125 Z" id="Shape"></path>
					</g>
					<path d="M27,11.7020742 C26.1870469,11.4501094 25.3238906,11.3139492 24.4293047,11.3139492 C19.6288945,11.3139492 15.7233867,15.2197734 15.7233867,20.0205 C15.7233867,24.8212266 19.6288945,28.7270508 24.4293047,28.7270508 C25.3238906,28.7270508 26.1870469,28.5908906 27,28.3389258 C30.5473359,27.2393086 33.1314258,23.9263242 33.1314258,20.0205 C33.1314258,16.1146758 30.5473359,12.8017969 27,11.7020742 Z M22.3043203,25.557082 C20.076082,24.7013086 18.5020664,22.5473203 18.4975313,20.0208164 C18.5019609,17.4950508 20.076082,15.3412734 22.3043203,14.4795938 L22.3043203,25.557082 Z M27,25.361543 C26.8533984,25.432207 26.7042656,25.4983359 26.5514414,25.557082 L26.5514414,14.4794883 C26.7044766,14.5382344 26.8535039,14.6046797 27,14.6753438 C28.9875586,15.6358477 30.3577031,17.6684414 30.3620273,20.0207109 C30.3577031,22.3740352 28.9875586,24.4024102 27,25.361543 Z" id="Shape" fill="#DEDEE0"></path>
					<path d="M24.3556875,30.9198516 C18.3359531,30.9198516 13.4385117,26.0778867 13.4385117,20.1263906 C13.4385117,13.8735703 18.1498008,9.15816797 24.3975586,9.15816797 L27,9.15816797 L27,0.0519960937 L2.45457422,0.0519960937 C1.09898437,0.0519960937 0,1.15098047 0,2.50657031 L0,37.5715547 C0,38.9271445 1.09898437,40.0261289 2.45457422,40.0261289 L27,40.0261289 L27,30.9197461 L24.3556875,30.9198516 Z" id="Shape" fill="#C3C3C7"></path>
			</g>
	</g>
</symbol>

<symbol viewBox="0 0 54 39" id="discover">
	<g>
			<g fill-rule="nonzero">
					<path d="M3.37222603,0.0053630137 L50.5841301,0.0053630137 C52.4456507,0.0053630137 53.9563562,1.51440411 53.9563562,3.37758904 L53.9563562,35.4143836 C53.9563562,37.2759041 52.4456507,38.7866096 50.5841301,38.7866096 L3.37222603,38.7866096 C1.51070548,38.7866096 0,37.2759041 0,35.4143836 L0,3.37777397 C0,1.51458904 1.51070548,0.0053630137 3.37222603,0.0053630137 Z" id="Shape" fill="#E4E7E7"></path>
					<path d="M10.8519658,6.74833562 L6.74112329,6.74833562 L6.74112329,20.2442671 L10.8299589,20.2442671 C12.9999452,20.2442671 14.5698288,19.7603014 15.9457192,18.6862192 C17.5779247,17.4114863 18.5475205,15.4876438 18.5475205,13.5012945 C18.5475205,9.51694521 15.3842671,6.74833562 10.8519658,6.74833562 Z M13.8972329,16.0439178 C13.1671233,16.6105479 12.2280411,16.8531781 10.7339795,16.8531781 L10.1151986,16.8531781 L10.1151986,10.135726 L10.7339795,10.135726 C12.2278562,10.135726 13.1316164,10.3633767 13.8972329,10.9551575 C14.6965068,11.5656164 15.1736301,12.5096918 15.1736301,13.4842808 C15.1736301,14.4590548 14.6963219,15.438637 13.8972329,16.0439178 Z M20.2370548,20.2424178 L23.5857945,20.2424178 L23.5857945,6.72466438 L20.2370548,6.72466438 L20.2370548,20.2424178 Z M31.1885137,11.950089 C29.4771575,11.3903014 28.9746986,11.0176644 28.9746986,10.3228767 C28.9746986,9.51010274 29.8718014,8.88632877 31.0991918,8.88632877 C31.9541301,8.88632877 32.653726,9.19664384 33.4008493,9.93341096 L34.8880685,8.20855479 C33.6604932,7.25763699 32.1952808,6.77200685 30.5950685,6.77200685 C28.015274,6.77200685 26.0424247,8.36204795 26.0424247,10.4747055 C26.0424247,12.2620685 26.9613493,13.1724863 29.6339795,14.0257603 C30.750226,14.374726 31.3185205,14.6057055 31.6033151,14.7643767 C32.173274,15.0948493 32.4599178,15.5568082 32.4599178,16.0997671 C32.4599178,17.1501781 31.5156575,17.9241164 30.2461027,17.9241164 C28.8887055,17.9241164 27.7944658,17.3254932 27.1368493,16.1992603 L25.3006644,17.774137 C26.6090548,19.4788356 28.1872603,20.239274 30.3557671,20.239274 C33.3115274,20.239274 35.3905274,18.4907466 35.3905274,15.9884384 C35.3903425,13.9329247 34.4292534,13.0021644 31.1885137,11.950089 Z M40.4774384,13.4759589 C40.4774384,11.3749521 42.1719658,9.71759589 44.328637,9.71759589 C45.4212123,9.71759589 46.2541438,10.0783973 47.2085753,10.9468356 L47.206911,7.53743836 C46.0823425,6.98097945 45.1532466,6.75 44.0488356,6.75 C40.1606507,6.75 37.0445548,9.74459589 37.0445548,13.4911233 C37.0445548,17.2814795 40.0846438,20.2154178 43.9915068,20.2154178 C45.0959178,20.2154178 46.0435068,20.0045959 47.206911,19.4651507 L47.2085753,16.054089 C46.2879863,16.9090274 45.4768767,17.253 44.4331233,17.253 C42.1198151,17.253 40.4774384,15.6916233 40.4774384,13.4759589 Z" id="Shape" fill="#324D5B"></path>
					<path d="M50.5841301,38.7866096 C52.4456507,38.7866096 53.9563562,37.2759041 53.9563562,35.4143836 L53.9563562,21.9252945 L23.6057671,38.7866096 L50.5841301,38.7866096 L50.5841301,38.7866096 Z" id="Shape" fill="#F4B459"></path>
			</g>
	</g>
</symbol>

<symbol viewBox="0 0 54 39" id="jcb">
	<g>
			<g id="" fill-rule="nonzero">
					<path d="M7.40322581,0.0217741935 C3.22258065,0.0217741935 0,2.72177419 0,7.425 L0,20.8379032 C0.348387097,22.4927419 2.09032258,23.7120968 4.00645161,23.7120968 C6.18387097,23.7120968 7.7516129,22.1443548 7.7516129,20.2282258 L7.7516129,13.4346774 L13.6741935,13.4346774 L13.6741935,20.141129 C13.6741935,23.8862903 8.88387097,25.8024194 5.4,25.8024194 C3.39677419,25.8024194 1.48064516,25.1927419 0.0870967742,24.1475806 L0.0870967742,38.9540323 L9.49354839,38.9540323 C12.8032258,38.9540323 16.6354839,35.8185484 16.6354839,31.8120968 L16.6354839,0.0217741935 L7.40322581,0.0217741935 Z" id="Shape" fill="#1174CE"></path>
					<path d="M0,7.425 L0,20.8379032 C0.348387097,22.4927419 2.09032258,23.7120968 4.00645161,23.7120968 C6.18387097,23.7120968 7.7516129,22.1443548 7.7516129,20.2282258 L7.7516129,13.4346774 L13.6741935,13.4346774 L13.6741935,20.141129 C13.6741935,23.8862903 8.88387097,25.8024194 5.4,25.8024194 C3.39677419,25.8024194 1.48064516,25.1927419 0.0870967742,24.1475806 L0.0870967742,38.9540323 L9.49354839,38.9540323 C12.8032258,38.9540323 16.6354839,35.8185484 16.6354839,31.8120968 L16.6354839,0.0217741935" id="Shape" fill="#0F549D"></path>
					<path d="M13.5870968,13.4346774 L13.5870968,20.141129 C13.5870968,23.8862903 8.79677419,25.8024194 5.31290323,25.8024194 C3.30967742,25.8024194 1.39354839,25.1927419 0,24.1475806 L0,38.9540323 L9.40645161,38.9540323 C12.716129,38.9540323 16.5483871,35.8185484 16.5483871,31.8120968" id="Shape" fill="#02375E"></path>
					<path d="M40.3258065,23.5379032 L44.4193548,23.5379032 C45.4645161,23.5379032 46.4225806,22.5798387 46.4225806,21.5346774 C46.4225806,20.4895161 45.4645161,19.5314516 44.4193548,19.5314516 L40.3258065,19.5314516 L40.3258065,23.5379032 Z" id="Shape" fill="#146643"></path>
					<path d="M44.9419355,0.0217741935 C40.6741935,0.0217741935 37.5387097,2.72177419 37.5387097,7.33790323 L37.5387097,13.4346774 L48.5129032,13.4346774 C50.0806452,13.4346774 51.3870968,14.741129 51.3870968,16.308871 C51.3870968,17.8766129 50.0806452,19.1830645 48.5129032,19.1830645 C50.2548387,19.1830645 51.6483871,20.4024194 51.6483871,21.9701613 C51.6483871,23.5379032 50.3419355,24.7572581 48.5129032,24.7572581 L37.4516129,24.7572581 L37.4516129,38.9540323 L46.8580645,38.9540323 C50.1677419,38.9540323 54,35.8185484 54,31.8120968 L54,0.0217741935 L44.9419355,0.0217741935 Z" id="Shape" fill="#1BCC38"></path>
					<path d="M37.4516129,7.425 L37.4516129,13.4346774 L48.4258065,13.4346774 C49.9935484,13.4346774 51.3,14.741129 51.3,16.308871 C51.3,17.8766129 49.9935484,19.1830645 48.4258065,19.1830645 C50.1677419,19.1830645 51.5612903,20.4024194 51.5612903,21.9701613 C51.5612903,23.5379032 50.2548387,24.7572581 48.4258065,24.7572581 L37.4516129,24.7572581 L37.4516129,38.9540323 L46.8580645,38.9540323 C50.1677419,38.9540323 54,35.8185484 54,31.8120968 L54,0.0217741935" id="Shape" fill="#329947"></path>
					<g id="Group" transform="translate(37.451613, 14.588710)" fill="#146643">
							<path d="M13.8483871,1.72016129 C13.8483871,3.28790323 12.5419355,4.59435484 10.9741935,4.59435484 C12.716129,4.59435484 14.1096774,5.81370968 14.1096774,7.38145161 C14.1096774,8.94919355 12.8032258,10.1685484 10.9741935,10.1685484 L0,10.1685484 L0,24.3653226 L9.40645161,24.3653226 C12.716129,24.3653226 16.5483871,21.2298387 16.5483871,17.2233871" id="Shape"></path>
							<path d="M8.88387097,2.06854839 C8.88387097,1.0233871 7.92580645,0.0653225806 6.88064516,0.0653225806 L2.87419355,0.0653225806 L2.87419355,3.98467742 L6.96774194,3.98467742 C8.01290323,3.98467742 8.88387097,3.11370968 8.88387097,2.06854839 Z" id="Shape"></path>
					</g>
					<path d="M26.0419355,0.0217741935 C21.7741935,0.0217741935 18.6387097,2.72177419 18.6387097,7.33790323 L18.6387097,14.8282258 C19.683871,13.9572581 20.9903226,13.3475806 22.383871,13.3475806 L32.3129032,13.3475806 L32.3129032,15.4379032 C29.9612903,14.9153226 27.6967742,14.6540323 26.5645161,14.6540323 C24.1258065,14.6540323 22.1225806,16.6572581 22.1225806,19.0959677 C22.1225806,21.5346774 24.1258065,23.5379032 26.5645161,23.5379032 C27.6967742,23.5379032 29.9612903,23.3637097 32.3129032,22.841129 L32.3129032,24.7572581 L22.383871,24.7572581 C20.9903226,24.7572581 19.5967742,24.2346774 18.6387097,23.2766129 L18.6387097,38.9540323 L28.0451613,38.9540323 C31.3548387,38.9540323 35.1870968,35.8185484 35.1870968,31.8120968 L35.1870968,0.0217741935 L26.0419355,0.0217741935 Z" id="Shape" fill="#E20E37"></path>
					<path d="M18.6387097,7.425 L18.6387097,14.9153226 C19.683871,14.0443548 20.9903226,13.4346774 22.383871,13.4346774 L32.3129032,13.4346774 L32.3129032,15.525 C29.9612903,15.0024194 27.6967742,14.741129 26.5645161,14.741129 C24.1258065,14.741129 22.1225806,16.7443548 22.1225806,19.1830645 C22.1225806,21.6217742 24.1258065,23.625 26.5645161,23.625 C27.6967742,23.625 29.9612903,23.4508065 32.3129032,22.9282258 L32.3129032,24.7572581 L22.383871,24.7572581 C20.9903226,24.7572581 19.5967742,24.2346774 18.6387097,23.2766129 L18.6387097,38.9540323 L28.0451613,38.9540323 C31.3548387,38.9540323 35.1870968,35.8185484 35.1870968,31.8120968 L35.1870968,0.0217741935" id="Shape" fill="#B41F36"></path>
					<path d="M32.3129032,13.4346774 L32.3129032,15.525 C29.9612903,15.0024194 27.6967742,14.741129 26.5645161,14.741129 C24.1258065,14.741129 22.1225806,16.7443548 22.1225806,19.1830645 C22.1225806,21.6217742 24.1258065,23.625 26.5645161,23.625 C27.6967742,23.625 29.9612903,23.4508065 32.3129032,22.9282258 L32.3129032,24.7572581 L22.383871,24.7572581 C20.9903226,24.7572581 19.5967742,24.2346774 18.6387097,23.2766129 L18.6387097,38.9540323 L28.0451613,38.9540323 C31.3548387,38.9540323 35.1870968,35.8185484 35.1870968,31.8120968" id="Shape" fill="#720A1E"></path>
			</g>
	</g>
</symbol>

<symbol viewBox="0 0 54 17" id="visa">
	<g>
			<g fill-rule="nonzero">
					<polygon id="Shape" fill="#3C58BF" points="19.8 16.0071429 22.5428571 0.578571429 26.8285714 0.578571429 24.1714286 16.0071429"></polygon>
					<polygon id="Shape" fill="#293688" points="19.8 16.0071429 23.3142857 0.578571429 26.8285714 0.578571429 24.1714286 16.0071429"></polygon>
					<path d="M39.6857143,0.75 C38.8285714,0.407142857 37.4571429,0.0642857143 35.7428571,0.0642857143 C31.4571429,0.0642857143 28.3714286,2.20714286 28.3714286,5.29285714 C28.3714286,7.60714286 30.5142857,8.80714286 32.2285714,9.57857143 C33.9428571,10.35 34.4571429,10.8642857 34.4571429,11.55 C34.4571429,12.5785714 33.0857143,13.0928571 31.8857143,13.0928571 C30.1714286,13.0928571 29.2285714,12.8357143 27.7714286,12.2357143 L27.1714286,11.9785714 L26.5714286,15.4928571 C27.6,15.9214286 29.4857143,16.35 31.4571429,16.35 C36,16.35 39,14.2071429 39,10.95 C39,9.15 37.8857143,7.77857143 35.3142857,6.66428571 C33.7714286,5.89285714 32.8285714,5.46428571 32.8285714,4.69285714 C32.8285714,4.00714286 33.6,3.32142857 35.3142857,3.32142857 C36.7714286,3.32142857 37.8,3.57857143 38.5714286,3.92142857 L39,4.09285714 L39.6857143,0.75 L39.6857143,0.75 Z" id="Shape" fill="#3C58BF"></path>
					<path d="M39.6857143,0.75 C38.8285714,0.407142857 37.4571429,0.0642857143 35.7428571,0.0642857143 C31.4571429,0.0642857143 29.1428571,2.20714286 29.1428571,5.29285714 C29.1428571,7.60714286 30.5142857,8.80714286 32.2285714,9.57857143 C33.9428571,10.35 34.4571429,10.8642857 34.4571429,11.55 C34.4571429,12.5785714 33.0857143,13.0928571 31.8857143,13.0928571 C30.1714286,13.0928571 29.2285714,12.8357143 27.7714286,12.2357143 L27.1714286,11.9785714 L26.5714286,15.4928571 C27.6,15.9214286 29.4857143,16.35 31.4571429,16.35 C36,16.35 39,14.2071429 39,10.95 C39,9.15 37.8857143,7.77857143 35.3142857,6.66428571 C33.7714286,5.89285714 32.8285714,5.46428571 32.8285714,4.69285714 C32.8285714,4.00714286 33.6,3.32142857 35.3142857,3.32142857 C36.7714286,3.32142857 37.8,3.57857143 38.5714286,3.92142857 L39,4.09285714 L39.6857143,0.75 L39.6857143,0.75 Z" id="Shape" fill="#293688"></path>
					<path d="M47.0571429,0.578571429 C46.0285714,0.578571429 45.2571429,0.664285714 44.8285714,1.69285714 L38.4,16.0071429 L43.0285714,16.0071429 L43.8857143,13.4357143 L49.3714286,13.4357143 L49.8857143,16.0071429 L54,16.0071429 L50.4,0.578571429 L47.0571429,0.578571429 Z M45.0857143,10.8642857 C45.3428571,10.0928571 46.8,6.32142857 46.8,6.32142857 C46.8,6.32142857 47.1428571,5.37857143 47.4,4.77857143 L47.6571429,6.23571429 C47.6571429,6.23571429 48.5142857,10.0928571 48.6857143,10.95 L45.0857143,10.95 L45.0857143,10.8642857 Z" id="Shape" fill="#3C58BF"></path>
					<path d="M48.0857143,0.578571429 C47.0571429,0.578571429 46.2857143,0.664285714 45.8571429,1.69285714 L38.4,16.0071429 L43.0285714,16.0071429 L43.8857143,13.4357143 L49.3714286,13.4357143 L49.8857143,16.0071429 L54,16.0071429 L50.4,0.578571429 L48.0857143,0.578571429 Z M45.0857143,10.8642857 C45.4285714,10.0071429 46.8,6.32142857 46.8,6.32142857 C46.8,6.32142857 47.1428571,5.37857143 47.4,4.77857143 L47.6571429,6.23571429 C47.6571429,6.23571429 48.5142857,10.0928571 48.6857143,10.95 L45.0857143,10.95 L45.0857143,10.8642857 Z" id="Shape" fill="#293688"></path>
					<path d="M11.9142857,11.3785714 L11.4857143,9.15 C10.7142857,6.57857143 8.22857143,3.75 5.48571429,2.37857143 L9.34285714,16.0928571 L13.9714286,16.0928571 L20.9142857,0.664285714 L16.2857143,0.664285714 L11.9142857,11.3785714 Z" id="Shape" fill="#3C58BF"></path>
					<path d="M11.9142857,11.3785714 L11.4857143,9.15 C10.7142857,6.57857143 8.22857143,3.75 5.48571429,2.37857143 L9.34285714,16.0928571 L13.9714286,16.0928571 L20.9142857,0.664285714 L17.1428571,0.664285714 L11.9142857,11.3785714 Z" id="Shape" fill="#293688"></path>
					<path d="M0,0.578571429 L0.771428571,0.75 C6.25714286,2.03571429 10.0285714,5.29285714 11.4857143,9.15 L9.94285714,1.86428571 C9.68571429,0.835714286 8.91428571,0.578571429 7.97142857,0.578571429 L0,0.578571429 L0,0.578571429 Z" id="Shape" fill="#FFBC00"></path>
					<path d="M0,0.578571429 L0,0.578571429 C5.48571429,1.86428571 10.0285714,5.20714286 11.4857143,9.06428571 L10.0285714,2.97857143 C9.77142857,1.95 8.91428571,1.35 7.97142857,1.35 L0,0.578571429 Z" id="Shape" fill="#F7981D"></path>
					<path d="M0,0.578571429 L0,0.578571429 C5.48571429,1.86428571 10.0285714,5.20714286 11.4857143,9.06428571 L10.4571429,5.72142857 C10.2,4.69285714 9.85714286,3.66428571 8.65714286,3.23571429 L0,0.578571429 Z" id="Shape" fill="#ED7C00"></path>
					<g id="Group" transform="translate(5.571429, 2.250000)" fill="#051244">
							<path d="M10.6285714,8.61428571 L7.71428571,5.7 L6.34285714,8.95714286 L6,6.81428571 C5.22857143,4.24285714 2.74285714,1.41428571 0,0.0428571429 L3.85714286,13.7571429 L8.48571429,13.7571429 L10.6285714,8.61428571 Z" id="Shape"></path>
							<polygon id="Shape" points="18.6 13.7571429 14.9142857 9.98571429 14.2285714 13.7571429"></polygon>
							<path d="M28.4571429,8.44285714 L28.4571429,8.44285714 C28.8,8.78571429 28.9714286,9.04285714 28.8857143,9.38571429 C28.8857143,10.4142857 27.5142857,10.9285714 26.3142857,10.9285714 C24.6,10.9285714 23.6571429,10.6714286 22.2,10.0714286 L21.6,9.81428571 L21,13.3285714 C22.0285714,13.7571429 23.9142857,14.1857143 25.8857143,14.1857143 C28.6285714,14.1857143 30.8571429,13.4142857 32.1428571,12.0428571 L28.4571429,8.44285714 Z" id="Shape"></path>
							<path d="M33.4285714,13.7571429 L37.4571429,13.7571429 L38.3142857,11.1857143 L43.8,11.1857143 L44.3142857,13.7571429 L48.4285714,13.7571429 L46.9714286,7.5 L41.8285714,2.52857143 L42.0857143,3.9 C42.0857143,3.9 42.9428571,7.75714286 43.1142857,8.61428571 L39.5142857,8.61428571 C39.8571429,7.75714286 41.2285714,4.07142857 41.2285714,4.07142857 C41.2285714,4.07142857 41.5714286,3.12857143 41.8285714,2.52857143" id="Shape"></path>
					</g>
			</g>
	</g>
</symbol>
<symbol viewBox="0 0 16 16" id="clearX">
	<g>
			<g>
					<rect id="Rectangle" x="0" y="0" width="16" height="16"></rect>
					<circle id="Oval" fill="#E7EAED" cx="8" cy="8" r="8"></circle>
					<path d="M8,6.58578644 L5.70710678,4.29289322 C5.31658249,3.90236893 4.68341751,3.90236893 4.29289322,4.29289322 C3.90236893,4.68341751 3.90236893,5.31658249 4.29289322,5.70710678 L6.58578644,8 L4.29289322,10.2928932 C3.90236893,10.6834175 3.90236893,11.3165825 4.29289322,11.7071068 C4.68341751,12.0976311 5.31658249,12.0976311 5.70710678,11.7071068 L8,9.41421356 L10.2928932,11.7071068 C10.6834175,12.0976311 11.3165825,12.0976311 11.7071068,11.7071068 C12.0976311,11.3165825 12.0976311,10.6834175 11.7071068,10.2928932 L9.41421356,8 L11.7071068,5.70710678 C12.0976311,5.31658249 12.0976311,4.68341751 11.7071068,4.29289322 C11.3165825,3.90236893 10.6834175,3.90236893 10.2928932,4.29289322 L8,6.58578644 Z" id="Line" fill="#C3C4C5" fill-rule="nonzero"></path>
			</g>
	</g>
</symbol>
<symbol viewBox="0 0 12 23" id="rightArrow">
	<g>
			<g transform="translate(-7.000000, -2.000000)">
					<g id="Caret" transform="translate(13.000004, 13.500004) rotate(90.000000) translate(-13.000004, -13.500004) translate(2.000004, 8.000004)">
							<path d="M20.3310353,10.7432941 C20.7415453,11.1127532 21.3738351,11.0794748 21.7432941,10.6689647 C22.1127532,10.2584547 22.0794748,9.6261649 21.6689647,9.2567059 L11.6689647,0.25670585 C11.2886598,-0.08556862 10.7113402,-0.08556862 10.3310353,0.25670585 L0.33103527,9.2567059 C-0.07947475,9.6261649 -0.11275317,10.2584547 0.25670585,10.6689647 C0.62616487,11.0794748 1.25845471,11.1127532 1.66896473,10.7432941 L11,2.3453624 L20.3310353,10.7432941 Z" id="path-1"></path>
					</g>
			</g>
	</g>
</symbol>
<symbol viewBox="0 0 26 26" id="searchRight">
	<g >
		<path d="M9.67126824,17.7429453 L1.70710678,25.7071068 C1.31658249,26.0976311 0.683417511,26.0976311 0.292893219,25.7071068 C-0.0976310729,25.3165825 -0.0976310729,24.6834175 0.292893219,24.2928932 L8.25705467,16.3287318 C6.84636529,14.6048612 6,12.4012702 6,10 C6,4.4771525 10.4771525,0 16,0 C21.5228475,0 26,4.4771525 26,10 C26,15.5228475 21.5228475,20 16,20 C13.5987298,20 11.3951388,19.1536347 9.67126824,17.7429453 Z M16,18 C20.418278,18 24,14.418278 24,10 C24,5.581722 20.418278,2 16,2 C11.581722,2 8,5.581722 8,10 C8,14.418278 11.581722,18 16,18 Z" id="path-2"></path>
	</g>

</symbol>
<symbol viewBox="0 0 22 26" id="shareGreen">
	<g>
			<g transform="translate(-2.000000, 0.000000)">
					<rect id="Rectangle" x="0" y="0" width="26" height="26"></rect>
					<g id="Line" transform="translate(2.000000, 0.000000)" fill-rule="nonzero">
							<path d="M12,3.41421356 L12,19 C12,19.5522847 11.5522847,20 11,20 C10.4477153,20 10,19.5522847 10,19 L10,3.41421356 L7.70710678,5.70710678 C7.31658249,6.09763107 6.68341751,6.09763107 6.29289322,5.70710678 C5.90236893,5.31658249 5.90236893,4.68341751 6.29289322,4.29289322 L10.2928932,0.292893219 C10.6834175,-0.0976310729 11.3165825,-0.0976310729 11.7071068,0.292893219 L15.7071068,4.29289322 C16.0976311,4.68341751 16.0976311,5.31658249 15.7071068,5.70710678 C15.3165825,6.09763107 14.6834175,6.09763107 14.2928932,5.70710678 L12,3.41421356 Z M20,9 L17,9 C16.4477153,9 16,8.55228475 16,8 C16,7.44771525 16.4477153,7 17,7 L21,7 C21.5522847,7 22,7.44771525 22,8 L22,25 C22,25.5522847 21.5522847,26 21,26 L1,26 C0.44771525,26 0,25.5522847 0,25 L0,8 C0,7.44771525 0.44771525,7 1,7 L5,7 C5.55228475,7 6,7.44771525 6,8 C6,8.55228475 5.55228475,9 5,9 L2,9 L2,24 L20,24 L20,9 Z" id="path-1"></path>
					</g>
					<g id="Swatches/01-Primary-Green-Clipped" transform="translate(2.000000, 0.000000)">
							<mask id="mask-2" fill="white">
									<use xlink:href="#path-1"></use>
							</mask>
							<g id="path-1"></g>
							<g id="Swatches/01-Primary-Green" mask="url(#mask-2)" fill="#05B8A3">
									<g transform="translate(-2.000000, 0.000000)" id="Rectangle">
											<rect x="0" y="0" width="26" height="26"></rect>
									</g>
							</g>
					</g>
			</g>
	</g>
</symbol>
<symbol viewBox="0 0 14 9" id="dropdownArrow">
	<g>
			<g fill="#1C1C1C" fill-rule="nonzero">
					<path d="M14,1.72883734 L14,9 L0,9 L12.454357,0.890819763 L12.454357,0.890819763 C12.917181,0.589469323 13.536667,0.720369773 13.838018,1.1831941 C13.943726,1.34554477 14,1.53510551 14,1.72883734 Z"></path>
			</g>
	</g>
</symbol>
<symbol viewBox="0 0 16 16" id="link">
	<g>
			<g>
					<g transform="translate(8.000000, 8.000000) scale(-1, 1) translate(-8.000000, -8.000000) ">
							<path d="M14.1176471,11.7647059 C14.1176471,11.503268 14.0261438,11.2810458 13.8431373,11.0980392 L11.8039216,9.05882353 C11.620915,8.87581699 11.3986928,8.78431373 11.1372549,8.78431373 C10.8627451,8.78431373 10.627451,8.88888889 10.4313725,9.09803922 C10.4509804,9.11764706 10.5130719,9.17810458 10.6176471,9.27941176 C10.7222222,9.38071895 10.7924837,9.45098039 10.8284314,9.49019608 C10.8643791,9.52941176 10.9133987,9.59150327 10.9754902,9.67647059 C11.0375817,9.76143791 11.0800654,9.84477124 11.1029412,9.92647059 C11.125817,10.0081699 11.1372549,10.0980392 11.1372549,10.1960784 C11.1372549,10.4575163 11.0457516,10.6797386 10.8627451,10.8627451 C10.6797386,11.0457516 10.4575163,11.1372549 10.1960784,11.1372549 C10.0980392,11.1372549 10.0081699,11.125817 9.92647059,11.1029412 C9.84477124,11.0800654 9.76143791,11.0375817 9.67647059,10.9754902 C9.59150327,10.9133987 9.52941176,10.8643791 9.49019608,10.8284314 C9.45098039,10.7924837 9.38071895,10.7222222 9.27941176,10.6176471 C9.17810458,10.5130719 9.11764706,10.4509804 9.09803922,10.4313725 C8.88235294,10.6339869 8.7745098,10.872549 8.7745098,11.1470588 C8.7745098,11.4084967 8.86601307,11.630719 9.04901961,11.8137255 L11.0686275,13.8431373 C11.245098,14.0196078 11.4673203,14.1078431 11.7352941,14.1078431 C11.996732,14.1078431 12.2189542,14.0228758 12.4019608,13.8529412 L13.8431373,12.4215686 C14.0261438,12.2385621 14.1176471,12.0196078 14.1176471,11.7647059 Z M7.2254902,4.85294118 C7.2254902,4.59150327 7.13398693,4.36928105 6.95098039,4.18627451 L4.93137255,2.15686275 C4.74836601,1.97385621 4.52614379,1.88235294 4.26470588,1.88235294 C4.00980392,1.88235294 3.7875817,1.97058824 3.59803922,2.14705882 L2.15686275,3.57843137 C1.97385621,3.76143791 1.88235294,3.98039216 1.88235294,4.23529412 C1.88235294,4.49673203 1.97385621,4.71895425 2.15686275,4.90196078 L4.19607843,6.94117647 C4.37254902,7.11764706 4.59477124,7.20588235 4.8627451,7.20588235 C5.1372549,7.20588235 5.37254902,7.10457516 5.56862745,6.90196078 C5.54901961,6.88235294 5.4869281,6.82189542 5.38235294,6.72058824 C5.27777778,6.61928105 5.20751634,6.54901961 5.17156863,6.50980392 C5.13562092,6.47058824 5.08660131,6.40849673 5.0245098,6.32352941 C4.9624183,6.23856209 4.91993464,6.15522876 4.89705882,6.07352941 C4.87418301,5.99183007 4.8627451,5.90196078 4.8627451,5.80392157 C4.8627451,5.54248366 4.95424837,5.32026144 5.1372549,5.1372549 C5.32026144,4.95424837 5.54248366,4.8627451 5.80392157,4.8627451 C5.90196078,4.8627451 5.99183007,4.87418301 6.07352941,4.89705882 C6.15522876,4.91993464 6.23856209,4.9624183 6.32352941,5.0245098 C6.40849673,5.08660131 6.47058824,5.13562092 6.50980392,5.17156863 C6.54901961,5.20751634 6.61928105,5.27777778 6.72058824,5.38235294 C6.82189542,5.4869281 6.88235294,5.54901961 6.90196078,5.56862745 C7.11764706,5.36601307 7.2254902,5.12745098 7.2254902,4.85294118 Z M16,11.7647059 C16,12.5490196 15.7222222,13.2124183 15.1666667,13.754902 L13.7254902,15.1862745 C13.1830065,15.7287582 12.5196078,16 11.7352941,16 C10.9444444,16 10.2777778,15.7222222 9.73529412,15.1666667 L7.71568627,13.1372549 C7.17320261,12.5947712 6.90196078,11.9313725 6.90196078,11.1470588 C6.90196078,10.3431373 7.18954248,9.66013072 7.76470588,9.09803922 L6.90196078,8.23529412 C6.33986928,8.81045752 5.66013072,9.09803922 4.8627451,9.09803922 C4.07843137,9.09803922 3.41176471,8.82352941 2.8627451,8.2745098 L0.823529412,6.23529412 C0.274509804,5.68627451 0,5.01960784 0,4.23529412 C0,3.45098039 0.277777778,2.7875817 0.833333333,2.24509804 L2.2745098,0.81372549 C2.81699346,0.27124183 3.48039216,0 4.26470588,0 C5.05555556,0 5.72222222,0.277777778 6.26470588,0.833333333 L8.28431373,2.8627451 C8.82679739,3.40522876 9.09803922,4.06862745 9.09803922,4.85294118 C9.09803922,5.65686275 8.81045752,6.33986928 8.23529412,6.90196078 L9.09803922,7.76470588 C9.66013072,7.18954248 10.3398693,6.90196078 11.1372549,6.90196078 C11.9215686,6.90196078 12.5882353,7.17647059 13.1372549,7.7254902 L15.1764706,9.76470588 C15.7254902,10.3137255 16,10.9803922 16,11.7647059 Z" id="path-1"></path>
					</g>
			</g>
	</g>
</symbol>
<symbol viewBox="0 0 26 18" id="email">
	<g>
			<g transform="translate(0.000000, -4.000000)">
					<g id="Rectangle-2" transform="translate(0.000000, 4.000000)">
							<path d="M24.4638977,0.05407629 C24.3069553,0.10327203 24.1578218,0.18618779 24.0275785,0.30340677 L13,10.2282274 L1.97242149,0.30340677 C1.84217817,0.18618779 1.69304472,0.10327203 1.53610235,0.05407629 C1.6849807,0.01871676 1.84030459,0 2,0 L2,0 L24,0 C24.1596954,0 24.3150193,0.01871676 24.4638977,0.05407629 Z M25.9458873,1.53594924 C25.9812704,1.68487421 26,1.84024984 26,2 L26,16 L26,16 C26,17.1045695 25.1045695,18 24,18 L2,18 C0.8954305,18 1.3527075e-16,17.1045695 0,16 L0,2 L0,2 C-1.9563752e-17,1.84024984 0.0187295949,1.68487421 0.0541126602,1.53594924 C0.115264392,1.73134438 0.228020526,1.91339092 0.391233357,2.06028247 L12.2094059,12.6966378 C12.6588569,13.1011437 13.3411431,13.1011437 13.7905941,12.6966378 L25.6087666,2.06028247 C25.7719795,1.91339092 25.8847356,1.73134438 25.9458873,1.53594924 Z" id="path-1"></path>
					</g>
			</g>
	</g>
</symbol>
<symbol viewBox="0 0 16 16" id="crossX">
	<g>
			<g>
					<path d="M8,6.58578644 L1.70710678,0.292893219 C1.31658249,-0.0976310729 0.683417511,-0.0976310729 0.292893219,0.292893219 C-0.0976310729,0.683417511 -0.0976310729,1.31658249 0.292893219,1.70710678 L6.58578644,8 L0.292893219,14.2928932 C-0.0976310729,14.6834175 -0.0976310729,15.3165825 0.292893219,15.7071068 C0.683417511,16.0976311 1.31658249,16.0976311 1.70710678,15.7071068 L8,9.41421356 L14.2928932,15.7071068 C14.6834175,16.0976311 15.3165825,16.0976311 15.7071068,15.7071068 C16.0976311,15.3165825 16.0976311,14.6834175 15.7071068,14.2928932 L9.41421356,8 L15.7071068,1.70710678 C16.0976311,1.31658249 16.0976311,0.683417511 15.7071068,0.292893219 C15.3165825,-0.0976310729 14.6834175,-0.0976310729 14.2928932,0.292893219 L8,6.58578644 Z" id="path-1"></path>
			</g>
	</g>
</symbol>
<symbol viewBox="0 0 26 26" id="message">
	<g>
			<g>
					<path d="M12,20 L22,20 C24.209139,20 26,18.209139 26,16 L26,4 C26,1.790861 24.209139,-4.05812251e-16 22,0 L4,0 L4,0 C1.790861,4.05812251e-16 -2.705415e-16,1.790861 0,4 L0,4 L0,16 C2.705415e-16,18.209139 1.790861,20 4,20 L12,20 L19.3836717,25.7788282 L19.3836717,25.7788282 C19.8185901,26.1192169 20.4471006,26.0425854 20.7874893,25.6076671 C20.9251854,25.4317313 21,25.2147523 21,24.9913388 L21,24.9913388 L21,20 L12,20 Z" id="path-1"></path>
			</g>
	</g>
</symbol>
<symbol viewBox="0 0 100 94" id="chat-new-icon">
	<g>
			<g>
					<path d="M16,2.13162821e-14 L84,2.13162821e-14 L84,2.13162821e-14 C92.836556,1.96930331e-14 100,7.163444 100,16 L100,58.1562874 L100,58.1562874 C100,66.9928434 92.836556,74.1562874 84,74.1562874 L73.8505416,74.1562874 L73.8505416,94 L48.6930043,74.1562874 L16,74.1562874 L16,74.1562874 C7.163444,74.1562874 4.37147301e-14,66.9928434 4.26325641e-14,58.1562874 L4.26325641e-14,16 L4.26325641e-14,16 C4.15503981e-14,7.163444 7.163444,2.29395311e-14 16,2.13162821e-14 Z" id="Rectangle"></path>
			</g>
	</g>
</symbol>
<symbol viewBox="0 0 240 50" id="kinduce-beta-logo">
	<g id="About" stroke="none" stroke-width="1" fill-rule="evenodd">
			<g id="About-Page-(Desktop)" transform="translate(-600.000000, -27.000000)">
					<g id="Header-(Not-Scrolled)" transform="translate(60.000000, 27.000000)">
							<g id="Logo" transform="translate(540.000000, 0.000000)">
									<path d="M18.2352941,28.4655878 C18.2352941,34.3100838 12.3309147,39.2582756 4.18820231,40.9212532 C1.54090791,36.8101058 0,31.9026551 0,26.6285345 C0,22.7247964 0.847134208,19.0247637 2.35517916,15.7025122 C11.4290089,16.9506713 18.2352941,22.1877546 18.2352941,28.4655878 Z M42.3055422,6.62376539 C48.0327014,11.2959164 51.6629087,18.2483076 51.6666667,26.0220176 C51.6666667,30.7193846 50.3325843,35.1177626 48.0176695,38.9037539 C39.0548907,36.9693321 32.4183007,30.0205432 32.4183007,21.7353101 C32.4183007,15.3376692 36.375452,9.73252893 42.3055422,6.62376539 Z M25.635189,32.8512561 C32.9822168,33.9573919 38.8130752,38.374658 40.5228758,44.0326883 C36.0182089,47.7622581 30.2275381,50 23.9107747,50 C17.0094642,50 10.736542,47.3147097 6.07843137,42.9520227 C14.0867282,42.526306 21.1305221,38.651192 25.635189,32.8512561 Z M26.7691756,0 C30.0934391,0.153582133 33.2566149,0.939776385 36.1378873,2.23791108 C34.9150855,4.91828497 32.7623687,7.26224086 29.9726233,9.04306226 C26.4909332,11.259033 22.0280729,12.5900782 17.1588323,12.5900782 C12.7435661,12.5900782 8.66878055,11.4894062 5.34817815,9.63545049 C7.51187828,6.9550766 10.2027744,4.70985208 13.2597788,3.06798594 C13.8711797,6.26030028 16.6865526,8.68104723 20.0657323,8.68104723 C23.8952253,8.68104723 26.9998238,5.57649412 26.9998238,1.75156766 C26.9998238,1.14455256 26.9156189,0.55947777 26.7691756,0 Z M234.948483,17.2300654 C235.00233,17.2753813 235.019157,17.3381264 235.019157,17.4183007 C235.019157,17.4949891 235.00233,17.5577342 234.948483,17.5995643 C234.901367,17.6448802 234.837424,17.669281 234.763384,17.669281 L233.797504,17.669281 L233.797504,20.8100218 C233.797504,20.8867102 233.770581,20.9494553 233.720099,21.0017429 C233.666252,21.0540305 233.602309,21.0784314 233.521539,21.0784314 C233.444134,21.0784314 233.376825,21.0540305 233.326344,21.0017429 C233.272497,20.9494553 233.245573,20.8867102 233.245573,20.8100218 L233.245573,17.669281 L232.293155,17.669281 C232.21575,17.669281 232.155172,17.6448802 232.101325,17.5960784 C232.057575,17.5542484 232.030651,17.4880174 232.030651,17.411329 C232.030651,17.3346405 232.057575,17.2753813 232.101325,17.2300654 C232.155172,17.1812636 232.21575,17.1568627 232.293155,17.1568627 L234.763384,17.1568627 C234.837424,17.1568627 234.901367,17.1812636 234.948483,17.2300654 Z M91.3878148,36.9256609 C91.5098591,37.2713833 91.5708812,37.5853557 91.5708812,37.8816893 C91.5708812,38.6860232 91.2585914,39.3492458 90.6411909,39.8854684 C90.0237904,40.4181632 89.3058828,40.6862745 88.4910576,40.6862745 C88.0962085,40.6862745 87.7228965,40.59808 87.3567636,40.4181632 C86.9942203,40.2417742 86.6926991,39.9913018 86.4522001,39.6632183 L76.6276346,26.9385152 L72.3237785,30.9848791 L72.3237785,37.9734116 C72.3237785,38.7742177 72.0617423,39.426857 71.5340802,39.9313296 C71.0028286,40.4358021 70.3172268,40.6862745 69.4736854,40.6862745 C68.6552707,40.6862745 67.9840271,40.4287466 67.456365,39.9101629 C66.9287029,39.3880514 66.6666667,38.7459954 66.6666667,37.9734116 L66.6666667,12.2523664 C66.6666667,11.4797825 66.935882,10.8341987 67.4814918,10.3156151 C68.023512,9.79703137 68.7198824,9.53597564 69.5634238,9.53597564 C70.3782489,9.53597564 71.0423135,9.78997581 71.5556174,10.2944484 C72.0689213,10.7989209 72.3237785,11.4480325 72.3237785,12.2523664 L72.3237785,24.3561801 L86.8147434,10.3367817 C87.5075242,9.65592017 88.246969,9.31372549 89.0330779,9.31372549 C89.7294482,9.31372549 90.3181325,9.5959479 90.7991306,10.1603927 C91.2837182,10.7213098 91.5242172,11.3175046 91.5242172,11.9383939 C91.5242172,12.562811 91.2514123,13.141367 90.7093921,13.6740618 L80.8381626,22.9309569 L90.935533,36.0613547 C91.1150099,36.297716 91.2657705,36.586994 91.3878148,36.9256609 Z M100.584671,39.8980483 C100.046778,40.4223436 99.3659474,40.6862745 98.545942,40.6862745 C97.7221752,40.6862745 97.0413451,40.4223436 96.5072131,39.8980483 C95.9655582,39.373753 95.6984923,38.7210589 95.6984923,37.939966 L95.6984923,19.3578004 C95.6984923,18.5767075 95.9655582,17.92758 96.5072131,17.3997181 C97.0413451,16.8789895 97.7221752,16.6150585 98.545942,16.6150585 C99.3659474,16.6150585 100.046778,16.8789895 100.584671,17.3997181 C101.122564,17.92758 101.393392,18.5767075 101.393392,19.3578004 L101.393392,37.939966 C101.393392,38.7210589 101.122564,39.373753 100.584671,39.8980483 M96.2213397,13.1982227 C95.7774836,12.8665257 95.5555556,12.2815977 95.5555556,11.4398719 L95.5555556,10.5838797 C95.5555556,9.74572058 95.7925296,9.16079253 96.2664776,8.83266216 C96.7441872,8.50096515 97.5002471,8.33333333 98.545942,8.33333333 C99.6518208,8.33333333 100.426688,8.50096515 100.870544,8.83266216 C101.310639,9.16079253 101.532567,9.74572058 101.532567,10.5838797 L101.532567,11.4398719 C101.532567,12.3136974 101.303116,12.9057587 100.844214,13.2196225 C100.389073,13.5299197 99.6029214,13.6904183 98.4970426,13.6904183 C97.4212558,13.6904183 96.6651958,13.5227865 96.2213397,13.1982227 Z M125.682242,18.9001783 C126.849381,20.714795 127.43295,23.2245989 127.43295,26.42959 L127.43295,37.9447415 C127.43295,38.7254902 127.176749,39.3743316 126.667905,39.9019608 C126.159061,40.426025 125.518558,40.6862745 124.739279,40.6862745 C123.96,40.6862745 123.315939,40.426025 122.807095,39.9019608 C122.298251,39.3743316 122.045608,38.7254902 122.045608,37.9447415 L122.045608,26.42959 C122.045608,24.7825312 121.700448,23.4848485 121.013687,22.540107 C120.323367,21.5989305 119.141994,21.1247772 117.466012,21.1247772 C115.733095,21.1247772 114.370247,21.627451 113.381026,22.6327986 C112.395363,23.6345811 111.900752,24.9037433 111.900752,26.42959 L111.900752,37.9447415 C111.900752,38.7254902 111.648109,39.3743316 111.139265,39.9019608 C110.630421,40.426025 109.98636,40.6862745 109.207081,40.6862745 C108.427802,40.6862745 107.787299,40.426025 107.278455,39.9019608 C106.769611,39.3743316 106.51341,38.7254902 106.51341,37.9447415 L106.51341,19.3707665 C106.51341,18.5900178 106.769611,17.9376114 107.278455,17.4135472 C107.787299,16.8930481 108.427802,16.6256684 109.207081,16.6256684 C109.98636,16.6256684 110.630421,16.8930481 111.139265,17.4135472 C111.648109,17.9376114 111.900752,18.5900178 111.900752,19.3707665 L111.900752,20.1372549 C112.708497,19.057041 113.765327,18.1265597 115.067684,17.3458111 C116.366481,16.5686275 117.796938,16.1764706 119.351937,16.1764706 C122.405002,16.1764706 124.515103,17.0855615 125.682242,18.9001783 Z M182.438217,17.9447415 C182.960752,18.4688057 183.218391,19.1212121 183.218391,19.9019608 L183.218391,31.3244207 C183.218391,34.5614973 182.307583,37.0962567 180.493226,38.9251337 C178.678869,40.7540107 176.091595,41.6666667 172.735034,41.6666667 C169.378473,41.6666667 166.798457,40.7540107 164.998614,38.9251337 C163.198772,37.0962567 162.298851,34.5614973 162.298851,31.3244207 L162.298851,19.9019608 C162.298851,19.1212121 162.556489,18.4688057 163.075396,17.9447415 C163.59793,17.4242424 164.24747,17.1568627 165.042159,17.1568627 C165.836847,17.1568627 166.493645,17.4242424 167.012551,17.9447415 C167.531457,18.4688057 167.792725,19.1212121 167.792725,19.9019608 L167.792725,31.3244207 C167.792725,33.1568627 168.202769,34.5080214 169.026488,35.3957219 C169.850206,36.2798574 171.087598,36.7219251 172.735034,36.7219251 C174.4115,36.7219251 175.667036,36.2798574 176.487125,35.3957219 C177.310843,34.5080214 177.720888,33.1568627 177.720888,31.3244207 L177.720888,19.9019608 C177.720888,19.1212121 177.982155,18.4688057 178.501062,17.9447415 C179.019968,17.4242424 179.676765,17.1568627 180.471454,17.1568627 C181.266142,17.1568627 181.915682,17.4242424 182.438217,17.9447415 Z M239.913048,17.2368948 C239.973536,17.2890895 240,17.3482436 240,17.424796 L240,20.8070185 C240,20.8835708 239.973536,20.9462046 239.920609,20.9983994 C239.860121,21.0505942 239.788291,21.0784314 239.697558,21.0784314 C239.610606,21.0784314 239.534995,21.0540738 239.485848,21.001879 C239.42536,20.9496842 239.395116,20.8870505 239.395116,20.8070185 L239.395116,18.2181568 L238.223153,19.8640326 C238.192909,19.8988291 238.155103,19.9231867 238.109737,19.9475442 C238.068151,19.9684222 238.030346,19.9788611 237.98498,19.9753815 C237.943394,19.9788611 237.898028,19.9684222 237.860222,19.9475442 C237.814856,19.9231867 237.780831,19.8988291 237.750587,19.8640326 L236.567282,18.1694417 L236.567282,20.8070185 C236.567282,20.8870505 236.537038,20.9496842 236.495452,21.001879 C236.442525,21.0540738 236.370695,21.0784314 236.287524,21.0784314 C236.208132,21.0784314 236.140083,21.0540738 236.087156,21.001879 C236.038009,20.9496842 236.015326,20.8870505 236.015326,20.8070185 L236.015326,17.424796 C236.015326,17.355203 236.04557,17.2925692 236.094717,17.2368948 C236.155205,17.1812203 236.227035,17.1568627 236.310207,17.1568627 C236.363134,17.1568627 236.40472,17.1673017 236.457647,17.1881796 C236.503014,17.2125372 236.537038,17.2438541 236.567282,17.2821302 L238.007663,19.2864102 L239.463165,17.2821302 C239.527434,17.1951389 239.610606,17.1568627 239.705119,17.1568627 C239.788291,17.1603424 239.852559,17.1847 239.913048,17.2368948 Z M215.506391,25.8494585 L227.279265,25.8494585 L227.279265,25.5413792 C227.154628,24.3055614 226.545686,23.2447886 225.438195,22.3625617 C224.327144,21.4768338 223.070089,21.0357204 221.663469,21.0357204 C218.191433,21.0357204 216.140261,22.6391328 215.506391,25.8494585 M232.175726,29.6024237 C231.634444,30.0435372 231.007697,30.2675948 230.284802,30.2675948 L215.463659,30.2675948 C215.823326,32.0040414 216.645932,33.3623908 217.935036,34.3531456 C219.22058,35.3368987 220.673493,35.8305256 222.290216,35.8305256 C223.518783,35.8305256 224.480269,35.7184968 225.167555,35.4979401 C225.85484,35.2773833 226.403243,35.042823 226.809204,34.7942591 C227.211605,34.5421943 227.485806,34.374151 227.635371,34.2831276 C228.180214,34.0205601 228.685884,33.8875259 229.166628,33.8875259 C229.793375,33.8875259 230.334657,34.1080826 230.779789,34.5491961 C231.232044,34.9903095 231.456391,35.5084428 231.456391,36.096594 C231.456391,36.8877975 231.036186,37.608983 230.195775,38.2601505 C229.362486,38.9358243 228.23363,39.509972 226.830571,39.9790926 C225.42039,40.4517142 223.999526,40.6862745 222.557296,40.6862745 C220.046746,40.6862745 217.849571,40.175143 215.980013,39.1423774 C214.106894,38.1131127 212.661102,36.6917471 211.646199,34.8817816 C210.627736,33.0718161 210.114943,31.0307911 210.114943,28.7657085 C210.114943,26.2310566 210.659785,24.0114858 211.735226,22.0964932 C212.814228,20.1815007 214.235092,18.7181243 216.00494,17.7028632 C217.771227,16.6876021 219.658591,16.1764706 221.663469,16.1764706 C223.636298,16.1764706 225.505856,16.7086075 227.254337,17.7658794 C229.00638,18.8266522 230.409439,20.2550196 231.456391,22.0509815 C232.503344,23.8469434 233.02682,25.7899432 233.02682,27.8799807 C232.998331,28.5871626 232.713446,29.1613103 232.175726,29.6024237 Z M205.479146,17.3457713 C207.0616,18.129973 207.851017,19.1662396 207.851017,20.4615727 C207.851017,21.1092393 207.655474,21.6728843 207.260765,22.1595094 C206.866057,22.6461346 206.344607,22.8911976 205.703659,22.8911976 C205.218421,22.8911976 204.820092,22.8211796 204.515913,22.6881454 C204.211734,22.5586121 203.914798,22.3800662 203.625103,22.1595094 C203.335409,21.9389527 203.056579,21.7569059 202.78499,21.6098681 C202.47719,21.4628302 202.028164,21.329796 201.434291,21.2107654 C200.840418,21.0917348 200.362423,21.0357204 199.996684,21.0357204 C197.711721,21.0357204 195.92286,21.718396 194.630099,23.0907489 C193.333718,24.4561001 192.685527,26.2450602 192.685527,28.4541284 C192.685527,30.5721732 193.34096,32.3331261 194.651826,33.7334863 C195.959071,35.1303455 197.635676,35.8270247 199.674399,35.8270247 C201.169945,35.8270247 202.281647,35.6519797 203.009503,35.2983887 C203.194183,35.2108662 203.444045,35.0568266 203.762708,34.8362699 C204.084993,34.6157132 204.381929,34.4476699 204.653518,34.3286393 C204.928727,34.2096087 205.261875,34.1500934 205.660205,34.1500934 C206.420652,34.1500934 207.021768,34.3846537 207.467172,34.8572753 C207.905335,35.3298968 208.122605,35.9355526 208.122605,36.6707417 C208.122605,37.3744227 207.698928,38.0360929 206.847951,38.6557523 C205.996974,39.2754116 204.867167,39.7655377 203.465772,40.1366331 C202.067997,40.5007268 200.576072,40.6862745 198.993618,40.6862745 C196.647095,40.6862745 194.579403,40.1576385 192.801405,39.0968657 C191.019786,38.0360929 189.643739,36.5727165 188.666021,34.7032357 C187.691924,32.8337548 187.203065,30.7507191 187.203065,28.4541284 C187.203065,26.0700152 187.713651,23.9519704 188.738444,22.0929923 C189.755995,20.2375151 191.179118,18.7881423 193.007812,17.744874 C194.836507,16.6981048 196.90782,16.1764706 199.218131,16.1764706 C201.807272,16.1764706 203.896692,16.5650705 205.479146,17.3457713 Z M148.193484,34.6695205 C149.443791,33.2637494 150.070757,31.4915619 150.070757,29.356481 C150.070757,27.2249234 149.443791,25.4456893 148.193484,24.0258253 C146.943177,22.6024381 145.326838,21.8907445 143.348091,21.8907445 C141.398337,21.8907445 139.796494,22.6024381 138.546187,24.0258253 C137.299504,25.4456893 136.672538,27.2249234 136.672538,29.356481 C136.672538,31.4915619 137.292256,33.2637494 138.524442,34.6695205 C139.760253,36.0752915 141.36572,36.7799387 143.348091,36.7799387 C145.326838,36.7799387 146.943177,36.0752915 148.193484,34.6695205 M154.546494,9.09082902 C155.064737,9.59465173 155.32567,10.2464503 155.32567,11.0462249 L155.32567,38.5133707 C155.32567,39.2849593 155.064737,39.9261882 154.546494,40.4476271 C154.02825,40.9655428 153.375916,41.222739 152.582243,41.222739 C151.792194,41.222739 151.143484,40.9725892 150.639737,40.4687665 C150.13599,39.9649438 149.867808,39.3272381 149.84244,38.5591727 C149.077759,39.4188423 148.048521,40.1516753 146.754725,40.7576718 C145.457305,41.3636684 144.094651,41.6666667 142.66314,41.6666667 C140.561175,41.6666667 138.654909,41.1417045 136.947968,40.0917803 C135.241027,39.0383328 133.89287,37.5797132 132.903497,35.7123983 C131.910499,33.8486066 131.417625,31.7276186 131.417625,29.356481 C131.417625,26.9853433 131.903251,24.8608322 132.878128,22.9794243 C133.853005,21.0980164 135.19029,19.6288271 136.879111,18.5824261 C138.571556,17.5289786 140.437956,17.0004933 142.478312,17.0004933 C143.94244,17.0004933 145.315966,17.2647359 146.595265,17.7791284 C147.874565,18.3005672 148.95454,18.9558891 149.84244,19.7591868 L149.84244,11.0462249 C149.84244,10.2746362 150.099749,9.63340732 150.617993,9.11196843 C151.136236,8.59757601 151.792194,8.33333333 152.582243,8.33333333 C153.375916,8.33333333 154.02825,8.59052954 154.546494,9.09082902 M199,0 L226,0 L226,0 C229.865993,-7.10171439e-16 233,3.13400675 233,7 L233,7 L233,7 C233,10.8659932 229.865993,14 226,14 L191,14 L191,8 L191,8 C191,3.581722 194.581722,8.11624501e-16 199,0 Z M199,10.8203125 L199,3 L201.809082,3 C202.815272,3 203.580645,3.18440571 204.105225,3.55322266 C204.629804,3.9220396 204.89209,4.45735326 204.89209,5.15917969 C204.89209,5.56380411 204.798992,5.90934102 204.612793,6.19580078 C204.426594,6.48226055 204.152671,6.69352146 203.791016,6.82958984 C204.199221,6.93701226 204.512531,7.13753108 204.730957,7.43115234 C204.949383,7.7247736 205.058594,8.08284294 205.058594,8.50537109 C205.058594,9.27165097 204.816002,9.84724742 204.330811,10.2321777 C203.845619,10.617108 203.126795,10.813151 202.174316,10.8203125 L199,10.8203125 Z M200.885254,7.49560547 L200.885254,9.37011719 L202.120605,9.37011719 C202.460776,9.37011719 202.722167,9.29223711 202.904785,9.13647461 C203.087403,8.98071211 203.178711,8.76139464 203.178711,8.47851562 C203.178711,7.82681966 202.854658,7.49918622 202.206543,7.49560547 L200.885254,7.49560547 Z M200.885254,6.26025391 L201.868164,6.26025391 C202.27995,6.25667316 202.573567,6.1814786 202.749023,6.03466797 C202.92448,5.88785734 203.012207,5.67122539 203.012207,5.38476562 C203.012207,5.05533689 202.917319,4.81811596 202.727539,4.6730957 C202.537759,4.52807545 202.23161,4.45556641 201.809082,4.45556641 L200.885254,4.45556641 L200.885254,6.26025391 Z M210.945312,7.50634766 L207.980469,7.50634766 L207.980469,9.37011719 L211.482422,9.37011719 L211.482422,10.8203125 L206.095215,10.8203125 L206.095215,3 L211.493164,3 L211.493164,4.45556641 L207.980469,4.45556641 L207.980469,6.10449219 L210.945312,6.10449219 L210.945312,7.50634766 Z M218.49707,4.45556641 L216.149902,4.45556641 L216.149902,10.8203125 L214.264648,10.8203125 L214.264648,4.45556641 L211.960449,4.45556641 L211.960449,3 L218.49707,3 L218.49707,4.45556641 Z M223.089355,9.359375 L220.505859,9.359375 L220.054688,10.8203125 L218.040527,10.8203125 L220.908691,3 L222.681152,3 L225.570801,10.8203125 L223.545898,10.8203125 L223.089355,9.359375 Z M220.957031,7.90380859 L222.638184,7.90380859 L221.794922,5.19140625 L220.957031,7.90380859 Z" id="logo-h"></path>
							</g>
					</g>
			</g>
	</g>
</symbol>
</svg>
